<svg width="414" height="745" viewBox="0 0 414 745" fill="none" xmlns="http://www.w3.org/2000/svg">
<circle cx="160" cy="584.784" r="160" fill="#FF7F11" fill-opacity="0.07"/>
<path d="M167.133 158C130.88 158 101.496 187.384 101.496 223.637C101.496 259.89 130.88 289.274 167.133 289.274C203.386 289.274 232.77 259.89 232.77 223.637C232.77 187.384 203.386 158 167.133 158ZM167.133 263.501C145.116 263.501 127.269 245.654 127.269 223.637C127.269 201.62 145.116 183.773 167.133 183.773C189.15 183.773 206.997 201.62 206.997 223.637C206.997 245.654 189.15 263.501 167.133 263.501Z" fill="#FF7F11" fill-opacity="0.07"/>
<path d="M188.382 573.02C145.178 573.02 104.557 556.19 74 525.644L75.463 524.181C137.728 586.446 239.026 586.446 301.291 524.181C331.454 494.019 348.065 453.917 348.065 411.272C348.065 368.628 331.454 328.515 301.291 298.363L302.754 296.9C333.311 327.457 350.13 368.078 350.13 411.283C350.13 454.487 333.301 495.108 302.754 525.665C272.208 556.201 231.587 573.02 188.382 573.02Z" fill="#e8e9ea"/>
<path d="M188.382 561.824C149.805 561.824 111.238 547.143 81.875 517.779L83.338 516.316C141.255 574.234 235.498 574.234 293.426 516.316C351.344 458.399 351.344 364.146 293.426 306.228L294.889 304.765C353.616 363.492 353.616 459.053 294.889 517.79C265.526 547.143 226.949 561.824 188.382 561.824Z" fill="#e8e9ea"/>
<path d="M188.383 550.764C151.123 550.764 116.095 536.248 89.7402 509.904L91.2032 508.441C117.163 534.401 151.673 548.689 188.372 548.689C225.082 548.689 259.591 534.391 285.541 508.441C311.501 482.481 325.789 447.971 325.789 411.272C325.789 374.563 311.491 340.053 285.541 314.103L287.004 312.64C313.348 338.984 327.864 374.023 327.864 411.283C327.864 448.542 313.348 483.57 287.004 509.925C260.67 536.248 225.642 550.764 188.383 550.764Z" fill="#e8e9ea"/>
<path d="M188.382 539.568C155.512 539.568 122.642 527.055 97.6152 502.029L99.0782 500.566C148.322 549.809 228.443 549.809 277.686 500.566C326.93 451.323 326.93 371.201 277.686 321.958L279.149 320.495C329.202 370.547 329.202 451.987 279.149 502.029C254.123 527.055 221.253 539.568 188.382 539.568Z" fill="#e8e9ea"/>
<path d="M188.382 528.446C158.365 528.446 128.337 517.022 105.479 494.164L106.942 492.701C151.849 537.607 224.904 537.607 269.8 492.701C314.707 447.795 314.707 374.739 269.8 329.843L271.263 328.38C316.969 374.085 316.969 448.469 271.263 494.174C248.426 517.022 218.399 528.446 188.382 528.446Z" fill="#e8e9ea"/>
<path d="M188.382 517.323C161.208 517.323 134.033 506.978 113.354 486.299L114.817 484.836C155.376 525.395 221.376 525.395 261.935 484.836C281.587 465.185 292.409 439.058 292.409 411.272C292.409 383.486 281.587 357.36 261.935 337.708L263.398 336.245C283.444 356.281 294.474 382.936 294.474 411.272C294.474 439.608 283.434 466.264 263.398 486.299C242.719 506.978 215.556 517.323 188.382 517.323Z" fill="#e8e9ea"/>
<path d="M188.382 506.2C164.061 506.2 139.74 496.945 121.22 478.424L122.683 476.961C158.904 513.183 217.839 513.183 254.061 476.961C290.282 440.739 290.282 381.805 254.061 345.583L255.523 344.12C292.555 381.151 292.555 441.403 255.523 478.434C237.024 496.934 212.703 506.2 188.382 506.2Z" fill="#e8e9ea"/>
<path d="M252.919 289.461L246.933 295.437V289.461H252.919Z" fill="#e8e9ea"/>
<path d="M264.001 289.461L246.933 306.529V300.553L258.024 289.461H264.001Z" fill="#e8e9ea"/>
<path d="M297.182 289.461L246.933 339.7V333.817L291.289 289.461H297.182Z" fill="#e8e9ea"/>
<path d="M286.184 289.461L246.933 328.702V322.725L280.208 289.461H286.184Z" fill="#e8e9ea"/>
<path d="M275.092 289.461L246.933 317.621V311.634L269.116 289.461H275.092Z" fill="#e8e9ea"/>
<path fill-rule="evenodd" clip-rule="evenodd" d="M414 66.493L413.581 66.3694C407.771 65.9814 401.908 65.7844 396 65.7844C378.432 65.7844 361.271 67.5268 344.68 70.8482L366.633 160.045L414 114.223V66.493ZM414 156.582L349.894 218.575L315.458 78.4999C211.288 112.406 136 210.303 136 325.784C136 469.378 252.406 585.784 396 585.784C402.051 585.784 408.053 585.578 414 585.171V156.582Z" fill="#FF7F11" fill-opacity="0.07"/>
<path fill-rule="evenodd" clip-rule="evenodd" d="M414 34.7461L296.16 0L315.458 78.4999C324.97 75.4041 334.722 72.8417 344.68 70.8482L338.101 44.1168L413.58 66.3694C413.72 66.3787 413.86 66.3882 414 66.3977V34.7461Z" fill="#FF7F11" fill-opacity="0.07"/>
</svg>
