<svg width="128" height="102" viewBox="0 0 128 102" fill="none" xmlns="http://www.w3.org/2000/svg">
<g clip-path="url(#clip0_252_21)">
<path d="M64.0003 25.4959V9.78009L37.3203 0.0597647C35.0403 -0.776821 32.5203 0.239033 31.4203 2.39025L14.3603 36.0728C8.20032 48.2232 12.7603 62.724 23.9803 69.4167L18.3803 84.8337L6.42032 80.4516C3.94032 79.5553 1.20032 80.8301 0.280321 83.3199C-0.639679 85.8098 0.660321 88.5585 3.14032 89.4549L36.0603 101.466C38.5403 102.362 41.2803 101.087 42.1803 98.5976C43.0803 96.1077 41.8003 93.359 39.3203 92.4626L27.3403 88.1004L32.9403 72.7033C46.5603 75.0138 60.0803 66.1699 62.9603 52.0675L63.9803 47.1277L65.0003 52.0675C67.9003 66.1699 81.4003 75.0138 95.0203 72.7033L100.62 88.1004L88.6403 92.4626C86.1603 93.359 84.8803 96.1077 85.7803 98.5976C86.6803 101.087 89.4203 102.362 91.9003 101.466L124.82 89.4549C127.3 88.5585 128.58 85.8098 127.68 83.3199C126.78 80.8301 124.04 79.5553 121.56 80.4516L109.58 84.8138L103.98 69.3968C115.2 62.7041 119.74 48.2033 113.6 36.0529L96.5803 2.39025C95.4803 0.219114 92.9403 -0.776821 90.6803 0.0597647L64.0003 9.78009V25.4959ZM56.8603 34.3398L30.7803 24.8187L38.0403 10.4972L60.1203 18.5443L56.8803 34.3398H56.8603ZM71.1203 34.3398L67.8803 18.5443L89.9603 10.4972L97.2203 24.8187L71.1403 34.3398H71.1203Z" fill="#FF7F11" fill-opacity="0.07"/>
</g>
<defs>
<clipPath id="clip0_252_21">
<rect width="128" height="101.984" fill="white"/>
</clipPath>
</defs>
</svg>
