<svg width="96" height="96" viewBox="0 0 96 96" fill="none" xmlns="http://www.w3.org/2000/svg">
<g clip-path="url(#clip0_245_1250)">
<path d="M48 96C74.5125 96 96 74.5125 96 48C96 21.4875 74.5125 0 48 0C21.4875 0 0 21.4875 0 48C0 74.5125 21.4875 96 48 96ZM48 24C50.4938 24 52.5 26.0063 52.5 28.5V49.5C52.5 51.9938 50.4938 54 48 54C45.5062 54 43.5 51.9938 43.5 49.5V28.5C43.5 26.0063 45.5062 24 48 24ZM54 66C54 69.3187 51.3187 72 48 72C44.6813 72 42 69.3187 42 66C42 62.6813 44.6813 60 48 60C51.3187 60 54 62.6813 54 66Z" fill="#FF7F11" fill-opacity="0.07"/>
</g>
<defs>
<clipPath id="clip0_245_1250">
<rect width="96" height="96" fill="white"/>
</clipPath>
</defs>
</svg>
