<svg width="176" height="176" viewBox="0 0 176 176" fill="none" xmlns="http://www.w3.org/2000/svg">
<g clip-path="url(#clip0_100_403)">
<path d="M120 32.5744C123.832 34.7869 125.141 39.6704 122.928 43.5026L121.628 45.7542C140.177 60.4762 146.936 85.7693 138.246 107.772L140.497 109.072C144.329 111.284 145.638 116.168 143.425 120C141.213 123.832 136.329 125.141 132.497 122.928L130.246 121.628C115.524 140.177 90.2305 146.936 68.228 138.246L66.928 140.497C64.7155 144.33 59.832 145.638 55.9998 143.426C52.1677 141.213 50.8591 136.33 53.0716 132.497L54.3716 130.246C35.8225 115.524 29.051 90.2523 37.7541 68.2282L35.5024 66.9282C31.6703 64.7157 30.3617 59.8322 32.5742 56C34.7867 52.1678 39.6703 50.8593 43.5024 53.0718L45.7541 54.3718C60.476 35.8226 85.7475 29.0512 107.772 37.7542L109.072 35.5026C111.284 31.6704 116.168 30.3619 120 32.5744ZM51.827 76.3532C47.2458 90.538 51.4585 106.192 62.4966 116.173L65.0716 111.713C67.2841 107.881 72.1677 106.572 75.9998 108.785C79.832 110.997 81.1405 115.881 78.928 119.713L76.353 124.173C90.5379 128.754 106.191 124.541 116.173 113.503L111.713 110.928C107.88 108.716 106.572 103.832 108.784 100C110.997 96.1678 115.88 94.8593 119.713 97.0718L124.173 99.6468C128.754 85.462 124.563 69.821 113.503 59.8272L110.928 64.2872C108.716 68.1193 103.832 69.4279 99.9998 67.2154C96.1677 65.0029 94.8591 60.1193 97.0716 56.2872L99.6466 51.8272C85.4618 47.246 69.8208 51.437 59.827 62.4968L64.287 65.0718C68.1192 67.2843 69.4277 72.1678 67.2152 76C65.0027 79.8322 60.1192 81.1407 56.287 78.9282L51.827 76.3532ZM83.9998 94.9282C80.1677 92.7157 78.8591 87.8322 81.0716 84C83.2841 80.1678 88.1677 78.8593 91.9998 81.0718C95.832 83.2843 97.1405 88.1678 94.928 92C92.7155 95.8322 87.832 97.1407 83.9998 94.9282Z" fill="#FF7F11" fill-opacity="0.07"/>
</g>
<defs>
<clipPath id="clip0_100_403">
<rect width="128" height="128" fill="white" transform="translate(64.5742 0.574371) rotate(30)"/>
</clipPath>
</defs>
</svg>
