<svg width="114" height="114" viewBox="0 0 114 114" fill="none" xmlns="http://www.w3.org/2000/svg">
<g clip-path="url(#clip0_220_315)">
<path d="M66.9798 103.951C92.913 98.439 109.463 72.9535 103.951 47.0204C98.4389 21.0872 72.9534 4.53679 47.0203 10.049C21.0872 15.5613 4.53672 41.0468 10.049 66.9799C15.5612 92.913 41.0467 109.463 66.9798 103.951ZM30.9437 73.6565C29.7311 71.2882 31.3057 68.5957 33.91 68.0421L82.5851 57.6959C85.1894 57.1424 87.723 58.9616 87.5785 61.6184C86.8547 74.8071 77.3963 86.402 63.8611 89.279C50.326 92.156 36.9692 85.4106 30.9437 73.6565ZM48.2733 50.5741L48.2288 50.5452C48.1844 50.5163 48.136 50.4691 48.0654 50.4074C47.9241 50.2841 47.694 50.103 47.4193 49.893C46.8516 49.477 46.0616 48.9165 45.1471 48.4016C43.229 47.3141 41.1533 46.5669 39.521 46.9138C37.8888 47.2608 36.2964 48.7877 34.9866 50.5613C34.3605 51.4036 33.8667 52.237 33.5174 52.848C33.3519 53.1515 33.2152 53.4106 33.1364 53.5807C33.097 53.6658 33.0536 53.7325 33.0431 53.773L33.0142 53.8175C32.7382 54.4129 32.1209 54.755 31.4911 54.678C30.8613 54.601 30.3225 54.1405 30.1861 53.4986C29.4883 50.2156 30.0271 46.7082 31.3282 43.9014C32.6187 41.1351 34.8071 38.7147 37.6498 38.1105C40.4926 37.5062 43.4762 38.8273 45.7803 40.8295C48.1106 42.8645 50.0294 45.8495 50.7272 49.1324C50.8597 49.756 50.5771 50.4103 50.0148 50.7407C49.4524 51.0711 48.7493 51.0097 48.2733 50.5741ZM77.6177 44.3368L77.5733 44.3079C77.5288 44.279 77.4804 44.2318 77.4098 44.1701C77.2686 44.0468 77.0384 43.8657 76.7637 43.6557C76.1961 43.2396 75.406 42.6791 74.4915 42.1643C72.5735 41.0768 70.4977 40.3295 68.8655 40.6765C67.2332 41.0234 65.6409 42.5503 64.331 44.3239C63.7049 45.1663 63.2112 45.9996 62.8618 46.6106C62.6963 46.9142 62.5597 47.1732 62.4808 47.3433C62.4414 47.4284 62.3981 47.4951 62.3875 47.5357L62.3586 47.5802C62.0826 48.1756 61.4653 48.5177 60.8355 48.4407C60.2057 48.3637 59.667 47.9031 59.5305 47.2612C58.8327 43.9783 59.3715 40.4709 60.6726 37.664C61.9632 34.8978 64.1515 32.4774 66.9943 31.8731C69.837 31.2689 72.8206 32.5899 75.1247 34.5921C77.455 36.6271 79.3738 39.6121 80.0716 42.8951C80.2042 43.5186 79.9215 44.1729 79.3592 44.5033C78.7968 44.8337 78.0937 44.7723 77.6177 44.3368Z" fill="#FF7F11" fill-opacity="0.07"/>
</g>
<defs>
<clipPath id="clip0_220_315">
<rect width="96" height="96" fill="white" transform="translate(0.0692139 20.0288) rotate(-12)"/>
</clipPath>
</defs>
</svg>
