<svg width="161" height="128" viewBox="0 0 161 128" fill="none" xmlns="http://www.w3.org/2000/svg">
<circle cx="97" cy="64" r="64" fill="#FF7F11" fill-opacity="0.07"/>
<path fill-rule="evenodd" clip-rule="evenodd" d="M31.1866 5.70791L29.66 3.90425L28.1334 5.70791L15.83 20.2442L3.5266 5.70791L0.473404 8.29209L14.3034 24.6321L15.83 26.4358L17.3566 24.6321L29.66 10.0958L41.9634 24.6321L43.49 26.4358L45.0166 24.6321L57.3206 10.0951L69.6339 24.6326L71.16 26.4344L72.6861 24.6326L86.5261 8.29264L83.4739 5.70736L71.16 20.2455L58.8461 5.70736L57.3194 3.9049L55.7934 5.70791L43.49 20.2442L31.1866 5.70791ZM31.1866 27.7079L29.66 25.9042L28.1334 27.7079L15.83 42.2442L3.5266 27.7079L0.473404 30.2921L14.3034 46.6321L15.83 48.4358L17.3566 46.6321L29.66 32.0958L41.9634 46.6321L43.49 48.4358L45.0166 46.6321L57.3206 32.0951L69.6339 46.6326L71.16 48.4344L72.6861 46.6326L86.5261 30.2926L83.4739 27.7074L71.16 42.2455L58.8461 27.7074L57.3194 25.9049L55.7934 27.7079L43.49 42.2442L31.1866 27.7079Z" fill="#8E8D8C"/>
</svg>
