<svg width="307" height="589" viewBox="0 0 307 589" fill="none" xmlns="http://www.w3.org/2000/svg">
<path d="M63.7598 409.533L108.562 364.731C100.598 369.282 93.23 374.715 86.5451 380.888L79.9171 387.516C73.7443 394.173 68.3111 401.569 63.7598 409.533Z" fill="#E9E9E9"/>
<path d="M50.3887 445.148L144.176 351.361C141.587 351.873 139.027 352.499 136.495 353.181L52.2093 437.467C51.4981 439.999 50.9007 442.559 50.3887 445.148Z" fill="#E9E9E9"/>
<path d="M48 468.986C48 469.242 48 469.498 48 469.754L168.754 349C168.498 349 168.242 349 167.986 349C166.251 349 164.515 349.057 162.78 349.114L48.1137 463.78C48.0568 465.515 48 467.222 48 468.986Z" fill="#E9E9E9"/>
<path d="M49.8765 490.121L189.177 350.82C187.499 350.536 185.792 350.251 184.114 350.024L49.1084 485.029C49.3075 486.764 49.5636 488.443 49.8765 490.121Z" fill="#E9E9E9"/>
<path d="M54.428 507.815L206.842 355.4C205.363 354.888 203.884 354.433 202.405 353.978L53.0342 503.349C53.4609 504.856 53.916 506.336 54.428 507.815Z" fill="#E9E9E9"/>
<path d="M61.0574 523.432L222.489 362C221.181 361.346 219.872 360.691 218.535 360.094L59.123 519.478C59.7489 520.815 60.3747 522.123 61.0574 523.432Z" fill="#E9E9E9"/>
<path d="M69.3637 537.342L236.371 370.335C235.205 369.538 234.038 368.742 232.872 367.974L67.0312 533.815C67.7993 535.009 68.5672 536.176 69.3637 537.342Z" fill="#E9E9E9"/>
<path d="M79.234 549.716L248.744 380.205C247.72 379.267 246.668 378.356 245.615 377.475L76.4746 546.615C77.3849 547.668 78.2953 548.692 79.234 549.716Z" fill="#E9E9E9"/>
<path d="M90.5567 560.639L259.669 391.527C258.787 390.474 257.877 389.422 256.938 388.398L87.4277 557.908C88.4518 558.847 89.5042 559.757 90.5567 560.639Z" fill="#E9E9E9"/>
<path d="M103.355 570.083L269.14 404.299C268.372 403.104 267.603 401.938 266.778 400.8L99.8281 567.751C100.994 568.547 102.161 569.344 103.355 570.083Z" fill="#E9E9E9"/>
<path d="M117.721 577.963L276.991 418.693C276.366 417.356 275.74 416.047 275.085 414.739L113.768 576.057C115.076 576.711 116.384 577.337 117.721 577.963Z" fill="#E9E9E9"/>
<path d="M133.879 584.05L283.107 434.85C282.652 433.343 282.197 431.863 281.714 430.413L129.441 582.685C130.892 583.14 132.372 583.595 133.879 584.05Z" fill="#E9E9E9"/>
<path d="M152.197 587.947L286.975 453.17C286.747 451.463 286.491 449.785 286.207 448.078L147.134 587.151C148.812 587.464 150.49 587.72 152.197 587.947Z" fill="#E9E9E9"/>
<path d="M168.015 589C169.864 589 171.712 588.943 173.533 588.858L287.887 474.504C287.972 472.684 288.029 470.835 288.029 468.986C288.029 468.844 288.029 468.673 288.029 468.531L167.588 588.972C167.702 588.972 167.872 589 168.015 589Z" fill="#E9E9E9"/>
<path d="M199.96 584.676L283.706 500.931C284.417 498.399 285.042 495.81 285.554 493.222L192.223 586.554C194.84 586.013 197.428 585.387 199.96 584.676Z" fill="#E9E9E9"/>
<path d="M271.842 529.178L228.205 572.814C246.268 562.318 261.345 547.241 271.842 529.178Z" fill="#E9E9E9"/>
<path d="M206 13C166.245 13 134 45.2451 134 85C134 124.755 166.245 157 206 157C245.755 157 278 124.755 278 85C278 45.2451 245.755 13 206 13ZM206 119.367C187.035 119.367 171.676 104.008 171.676 85.0424C171.676 66.0772 187.035 50.7183 206 50.7183C224.965 50.7183 240.324 66.0772 240.324 85.0424C240.324 104.008 224.965 119.367 206 119.367Z" fill="#FF7F11" fill-opacity="0.07"/>
<path fill-rule="evenodd" clip-rule="evenodd" d="M0 479.475C5.28838 479.823 10.6235 480 16 480C148.548 480 256 372.548 256 240C256 107.452 148.548 0 16 0C10.6235 0 5.28838 0.17679 0 0.524873V479.475Z" fill="#FF7F11" fill-opacity="0.07"/>
<path fill-rule="evenodd" clip-rule="evenodd" d="M0 302.132C9.00633 294.487 14.7231 283.072 14.7231 270.321V215.16C14.7231 202.018 23.1621 195.798 28.5808 195.798C33.9995 195.798 42.4384 202.018 42.4384 215.16V264.84C42.4384 288.437 58.8322 312 84.0461 312C109.26 312 125.654 288.437 125.654 264.84V215.16C125.654 202.018 134.093 195.798 139.511 195.798C144.93 195.798 153.369 202.018 153.369 215.16V264.84C153.369 288.437 169.763 312 194.977 312C220.191 312 236.584 288.437 236.584 264.84V215.16C236.584 202.018 245.023 195.798 250.442 195.798C255.861 195.798 264.3 202.018 264.3 215.16V264.84C264.3 288.437 280.693 312 305.907 312C306.273 312 306.638 311.995 307 311.985V284.123C306.625 284.176 306.26 284.202 305.907 284.202C300.489 284.202 292.05 277.982 292.05 264.84V215.16C292.05 191.563 275.656 168 250.442 168C225.228 168 208.834 191.563 208.834 215.16V264.84C208.834 277.982 200.395 284.202 194.977 284.202C189.558 284.202 181.119 277.982 181.119 264.84V215.16C181.119 191.563 164.725 168 139.511 168C114.297 168 97.9038 191.563 97.9038 215.16V264.84C97.9038 277.982 89.4648 284.202 84.0461 284.202C78.6274 284.202 70.1884 277.982 70.1884 264.84V215.16C70.1884 191.563 53.7947 168 28.5808 168C16.9162 168 7.13929 173.043 0 180.799V302.132Z" fill="white"/>
</svg>
