<svg width="208" height="208" viewBox="0 0 208 208" fill="none" xmlns="http://www.w3.org/2000/svg">
<path d="M13.6494 52.4633L52.4867 13.626C45.5917 17.566 39.1891 22.2799 33.3964 27.6271L27.6506 33.373C22.3034 39.1657 17.5894 45.5683 13.6494 52.4633Z" fill="#E9E9E9"/>
<path d="M2.06372 83.3271L83.3501 2.04077C81.0986 2.48637 78.894 3.02578 76.6895 3.61209L3.635 76.6666C3.04869 78.8711 2.50932 81.0757 2.06372 83.3271Z" fill="#E9E9E9"/>
<path d="M0 103.988C0 104.199 0 104.434 0 104.645L104.668 0C104.457 0 104.223 0 104.012 0C102.487 0 100.986 0.0469049 99.5089 0.0938099L0.117234 99.4855C0.0468764 100.986 0 102.487 0 103.988Z" fill="#E9E9E9"/>
<path d="M1.61825 122.328L122.328 1.61787C120.874 1.35989 119.397 1.12536 117.943 0.937744L0.93811 117.942C1.12573 119.396 1.36028 120.874 1.61825 122.328Z" fill="#E9E9E9"/>
<path d="M5.55825 137.643L137.643 5.55864C136.376 5.11304 135.086 4.71435 133.796 4.33911L4.33875 133.797C4.73744 135.087 5.1361 136.377 5.55825 137.643Z" fill="#E9E9E9"/>
<path d="M11.3042 151.175L151.198 11.2813C150.073 10.7185 148.923 10.1556 147.774 9.61621L9.63904 147.751C10.1784 148.901 10.7179 150.05 11.3042 151.175Z" fill="#E9E9E9"/>
<path d="M18.5274 163.229L163.253 18.5037C162.244 17.8002 161.236 17.12 160.204 16.4634L16.4871 160.18C17.1437 161.212 17.8238 162.221 18.5274 163.229Z" fill="#E9E9E9"/>
<path d="M27.0642 173.971L173.971 27.0645C173.079 26.2671 172.188 25.4697 171.274 24.6958L24.6954 171.274C25.4694 172.165 26.2668 173.08 27.0642 173.971Z" fill="#E9E9E9"/>
<path d="M36.8908 183.422L183.446 36.8675C182.672 35.9528 181.874 35.0382 181.077 34.147L34.1704 181.053C35.0616 181.851 35.9527 182.648 36.8908 183.422Z" fill="#E9E9E9"/>
<path d="M47.9604 191.607L191.63 47.9368C190.974 46.9049 190.294 45.8964 189.59 44.8879L44.9116 189.59C45.9201 190.27 46.9285 190.95 47.9604 191.607Z" fill="#E9E9E9"/>
<path d="M60.4136 198.432L198.432 60.4138C197.892 59.2646 197.353 58.1155 196.766 56.9897L56.9662 196.79C58.1154 197.353 59.2645 197.892 60.4136 198.432Z" fill="#E9E9E9"/>
<path d="M74.4148 203.708L203.732 74.3914C203.357 73.1015 202.935 71.8116 202.512 70.5452L70.5686 202.489C71.835 202.935 73.1249 203.333 74.4148 203.708Z" fill="#E9E9E9"/>
<path d="M90.3155 207.086L207.109 90.2926C206.921 88.8151 206.687 87.3376 206.429 85.8835L85.9065 206.406C87.3605 206.664 88.838 206.898 90.3155 207.086Z" fill="#E9E9E9"/>
<path d="M104.012 208C105.63 208 107.225 207.953 108.796 207.883L207.883 108.796C207.953 107.201 208 105.607 208 104.012C208 103.871 208 103.754 208 103.613L103.613 208C103.73 207.977 103.871 208 104.012 208Z" fill="#E9E9E9"/>
<path d="M131.686 204.248L204.271 131.662C204.881 129.458 205.421 127.23 205.89 124.979L125.002 205.866C127.253 205.397 129.481 204.858 131.686 204.248Z" fill="#E9E9E9"/>
<path d="M193.975 156.147L156.147 193.976C171.813 184.876 184.876 171.813 193.975 156.147Z" fill="#E9E9E9"/>
</svg>
