<svg width="449" height="496" viewBox="0 0 449 496" fill="none" xmlns="http://www.w3.org/2000/svg">
<path d="M233.87 397L217.43 413.36L200.98 397L184.54 413.36L168.1 397L153.6 411.43L139.09 397L122.65 413.36L106.2 397L89.76 413.36L73.32 397L57 413.24L58.82 415.06L73.32 400.63L89.76 416.99L106.2 400.63L122.65 416.99L139.09 400.63L153.6 415.07L168.1 400.63L184.54 416.99L200.98 400.63L217.43 416.99L233.87 400.63L248.38 415.06L250.19 413.24L233.87 397Z" fill="#8E8D8C"/>
<path fill-rule="evenodd" clip-rule="evenodd" d="M410.291 13.6302C384.825 4.79822 357.473 0 329 0C192.033 0 81 111.033 81 248C81 384.967 192.033 496 329 496C372.53 496 413.441 484.785 449 465.087V318.871L231 318.712L410.291 13.6302ZM449 266.318V123.715L428.195 88.1918L323.557 266.26L449 266.318Z" fill="#FF7F11" fill-opacity="0.07"/>
<path d="M13.6494 57.4633L52.4867 18.626C45.5917 22.566 39.1891 27.2799 33.3964 32.6271L27.6506 38.373C22.3034 44.1657 17.5894 50.5683 13.6494 57.4633Z" fill="#E9E9E9"/>
<path d="M2.06372 88.3271L83.3501 7.04077C81.0986 7.48637 78.894 8.02578 76.6895 8.61209L3.635 81.6666C3.04869 83.8711 2.50932 86.0757 2.06372 88.3271Z" fill="#E9E9E9"/>
<path d="M0 108.988C0 109.199 0 109.434 0 109.645L104.668 5C104.457 5 104.223 5 104.012 5C102.487 5 100.986 5.0469 99.5089 5.09381L0.117234 104.485C0.0468764 105.986 0 107.487 0 108.988Z" fill="#E9E9E9"/>
<path d="M1.61825 127.328L122.328 6.61787C120.874 6.35989 119.397 6.12536 117.943 5.93774L0.93811 122.942C1.12573 124.396 1.36028 125.874 1.61825 127.328Z" fill="#E9E9E9"/>
<path d="M5.55825 142.643L137.643 10.5586C136.376 10.113 135.086 9.71435 133.796 9.33911L4.33875 138.797C4.73744 140.087 5.1361 141.377 5.55825 142.643Z" fill="#E9E9E9"/>
<path d="M11.3042 156.175L151.198 16.2813C150.073 15.7185 148.923 15.1556 147.774 14.6162L9.63904 152.751C10.1784 153.901 10.7179 155.05 11.3042 156.175Z" fill="#E9E9E9"/>
<path d="M18.5274 168.229L163.253 23.5037C162.244 22.8002 161.236 22.12 160.204 21.4634L16.4871 165.18C17.1437 166.212 17.8238 167.221 18.5274 168.229Z" fill="#E9E9E9"/>
<path d="M27.0642 178.971L173.971 32.0645C173.079 31.2671 172.188 30.4697 171.274 29.6958L24.6954 176.274C25.4694 177.165 26.2668 178.08 27.0642 178.971Z" fill="#E9E9E9"/>
<path d="M36.8908 188.422L183.446 41.8675C182.672 40.9528 181.874 40.0382 181.077 39.147L34.1704 186.053C35.0616 186.851 35.9527 187.648 36.8908 188.422Z" fill="#E9E9E9"/>
<path d="M47.9604 196.607L191.63 52.9368C190.974 51.9049 190.294 50.8964 189.59 49.8879L44.9116 194.59C45.9201 195.27 46.9285 195.95 47.9604 196.607Z" fill="#E9E9E9"/>
<path d="M60.4136 203.432L198.432 65.4138C197.892 64.2646 197.353 63.1155 196.766 61.9897L56.9662 201.79C58.1154 202.353 59.2645 202.892 60.4136 203.432Z" fill="#E9E9E9"/>
<path d="M74.4148 208.708L203.732 79.3914C203.357 78.1015 202.935 76.8116 202.512 75.5452L70.5686 207.489C71.835 207.935 73.1249 208.333 74.4148 208.708Z" fill="#E9E9E9"/>
<path d="M90.3155 212.086L207.109 95.2926C206.921 93.8151 206.687 92.3376 206.429 90.8835L85.9065 211.406C87.3605 211.664 88.838 211.898 90.3155 212.086Z" fill="#E9E9E9"/>
<path d="M104.012 213C105.63 213 107.225 212.953 108.796 212.883L207.883 113.796C207.953 112.201 208 110.607 208 109.012C208 108.871 208 108.754 208 108.613L103.613 213C103.73 212.977 103.871 213 104.012 213Z" fill="#E9E9E9"/>
<path d="M131.686 209.248L204.271 136.662C204.881 134.458 205.421 132.23 205.89 129.979L125.002 210.866C127.253 210.397 129.481 209.858 131.686 209.248Z" fill="#E9E9E9"/>
<path d="M193.975 161.147L156.147 198.976C171.813 189.876 184.876 176.813 193.975 161.147Z" fill="#E9E9E9"/>
</svg>
