<svg width="116" height="116" viewBox="0 0 116 116" fill="none" xmlns="http://www.w3.org/2000/svg">
<path d="M10.7844 68.0594L51.7242 106.28C53.4234 107.866 55.6664 108.75 58 108.75C60.3336 108.75 62.5766 107.866 64.2758 106.28L105.216 68.0594C112.103 61.6477 116 52.6531 116 43.2508V41.9367C116 26.1 104.559 12.5969 88.9484 9.9914C78.6172 8.26952 68.1047 11.6453 60.7188 19.0312L58 21.75L55.2812 19.0312C47.8953 11.6453 37.3828 8.26952 27.0516 9.9914C11.4414 12.5969 0 26.1 0 41.9367V43.2508C0 52.6531 3.89687 61.6477 10.7844 68.0594Z" fill="#FF7F11" fill-opacity="0.07"/>
</svg>
