<svg width="90" height="116" viewBox="0 0 90 116" fill="none" xmlns="http://www.w3.org/2000/svg">
<g clip-path="url(#clip0_220_302)">
<path d="M50.5547 113.1C62.5781 98.5547 90 63.3016 90 43.5C90 19.4844 69.8438 0 45 0C20.1562 0 0 19.4844 0 43.5C0 63.3016 27.4219 98.5547 39.4453 113.1C42.3281 116.566 47.6719 116.566 50.5547 113.1ZM45 58C36.7266 58 30 51.4977 30 43.5C30 35.5023 36.7266 29 45 29C53.2734 29 60 35.5023 60 43.5C60 51.4977 53.2734 58 45 58Z" fill="#FF7F11" fill-opacity="0.07"/>
</g>
<defs>
<clipPath id="clip0_220_302">
<rect width="90" height="116" fill="white"/>
</clipPath>
</defs>
</svg>
