<svg width="41" height="41" viewBox="0 0 41 41" fill="none" xmlns="http://www.w3.org/2000/svg">
<g clip-path="url(#clip0_220_312)">
<path d="M33.3125 16.6562C33.3125 20.3318 32.1193 23.7271 30.1094 26.4818L40.2473 36.6277C41.2482 37.6287 41.2482 39.2543 40.2473 40.2553C39.2463 41.2563 37.6207 41.2563 36.6197 40.2553L26.4818 30.1094C23.7271 32.1273 20.3318 33.3125 16.6562 33.3125C7.45527 33.3125 0 25.8572 0 16.6562C0 7.45527 7.45527 0 16.6562 0C25.8572 0 33.3125 7.45527 33.3125 16.6562ZM16.6562 28.1875C23.0225 28.1875 28.1875 23.0225 28.1875 16.6562C28.1875 10.29 23.0225 5.125 16.6562 5.125C10.29 5.125 5.125 10.29 5.125 16.6562C5.125 23.0225 10.29 28.1875 16.6562 28.1875Z" fill="#FFAD66"/>
</g>
<defs>
<clipPath id="clip0_220_312">
<rect width="41" height="41" fill="white"/>
</clipPath>
</defs>
</svg>
