<svg width="30" height="31" viewBox="0 0 30 31" fill="none" xmlns="http://www.w3.org/2000/svg">
<g clip-path="url(#clip0_220_319)">
<path d="M24.375 12.6933C24.375 15.3772 23.502 17.8565 22.0312 19.868L29.4492 27.2766C30.1816 28.0075 30.1816 29.1946 29.4492 29.9255C28.7168 30.6564 27.5273 30.6564 26.7949 29.9255L19.377 22.5169C17.3613 23.9904 14.877 24.8558 12.1875 24.8558C5.45508 24.8558 0 19.4119 0 12.6933C0 5.97466 5.45508 0.530762 12.1875 0.530762C18.9199 0.530762 24.375 5.97466 24.375 12.6933ZM12.1875 21.1135C16.8457 21.1135 20.625 17.3419 20.625 12.6933C20.625 8.04463 16.8457 4.27308 12.1875 4.27308C7.5293 4.27308 3.75 8.04463 3.75 12.6933C3.75 17.3419 7.5293 21.1135 12.1875 21.1135Z" fill="#FFBA85"/>
</g>
<defs>
<clipPath id="clip0_220_319">
<rect width="30" height="29.9385" fill="white" transform="translate(0 0.530762)"/>
</clipPath>
</defs>
</svg>
