<svg xmlns="http://www.w3.org/2000/svg" class="A" id="A" viewBox="0 0 500 500" xmlns:v="https://vecta.io/nano"><style><![CDATA[svg#A.A #B{animation:1s 1 forwards cubic-bezier(.36,-0.01,.5,1.38) slideUp;animation-delay:0s}svg#A.A #C{animation:1s 1 forwards cubic-bezier(.36,-0.01,.5,1.38) slideDown;animation-delay:0s}svg#A.A #D{animation:1s 1 forwards cubic-bezier(.36,-0.01,.5,1.38) slideLeft;animation-delay:0s}svg#A.A #E{animation:1s 1 forwards cubic-bezier(.36,-0.01,.5,1.38) slideLeft;animation-delay:0s}svg#A.A #F{animation:1s 1 forwards cubic-bezier(.36,-0.01,.5,1.38) slideRight;animation-delay:0s}svg#A.A #G{animation:1s 1 forwards cubic-bezier(.36,-0.01,.5,1.38) slideUp;animation-delay:0s}svg#A.A #H{animation:1s 1 forwards cubic-bezier(.36,-0.01,.5,1.38) slideRight;animation-delay:0s}svg#A.A #I{animation:1s 1 forwards cubic-bezier(.36,-0.01,.5,1.38) fadeIn;animation-delay:0s}svg#A.A #J{animation:1s 1 forwards cubic-bezier(.36,-0.01,.5,1.38) lightSpeedLeft;animation-delay:0s}svg#A.A #K{animation:1s 1 forwards cubic-bezier(.36,-0.01,.5,1.38) zoomIn;animation-delay:0s}svg#A.A #L{animation:1s 1 forwards cubic-bezier(.36,-0.01,.5,1.38) zoomOut;animation-delay:0s}svg#A.A #O{animation:1s 1 forwards cubic-bezier(.36,-0.01,.5,1.38) slideRight;animation-delay:0s}@keyframes slideUp{0%{opacity:0;transform:translateY(30px)}100%{opacity:1;transform:inherit}} @keyframes slideDown{0%{opacity:0;transform:translateY(-30px)}100%{opacity:1;transform:translateY(0)}} @keyframes slideLeft{0%{opacity:0;transform:translateX(-30px)}100%{opacity:1;transform:translateX(0)}} @keyframes slideRight{0%{opacity:0;transform:translateX(30px)}100%{opacity:1;transform:translateX(0)}} @keyframes fadeIn{0%{opacity:0}100%{opacity:1}} @keyframes lightSpeedLeft{from{transform:translate3d(-50%, 0, 0) skewX(20deg);opacity:0}60%{transform:skewX(-10deg);opacity:1}80%{transform:skewX(2deg)}to{opacity:1;transform:translate3d(0, 0, 0)}} @keyframes zoomIn{0%{opacity:0;transform:scale(0.5)}100%{opacity:1;transform:scale(1)}} @keyframes zoomOut{0%{opacity:0;transform:scale(1.5)}100%{opacity:1;transform:scale(1)}} @keyframes slideUp{0%{opacity:0;transform:translateY(30px)}100%{opacity:1;transform:inherit}} @keyframes slideDown{0%{opacity:0;transform:translateY(-30px)}100%{opacity:1;transform:translateY(0)}} @keyframes slideLeft{0%{opacity:0;transform:translateX(-30px)}100%{opacity:1;transform:translateX(0)}} @keyframes slideRight{0%{opacity:0;transform:translateX(30px)}100%{opacity:1;transform:translateX(0)}} @keyframes fadeIn{0%{opacity:0}100%{opacity:1}} @keyframes lightSpeedLeft{from{transform:translate3d(-50%, 0, 0) skewX(20deg);opacity:0}60%{transform:skewX(-10deg);opacity:1}80%{transform:skewX(2deg)}to{opacity:1;transform:translate3d(0, 0, 0)}} @keyframes zoomIn{0%{opacity:0;transform:scale(0.5)}100%{opacity:1;transform:scale(1)}} @keyframes zoomOut{0%{opacity:0;transform:scale(1.5)}100%{opacity:1;transform:scale(1)}}.C{fill:#ff7f11}.D{fill:#fff}.E{fill:#37474f}.F{fill:#263238}.G{fill:#455a64}.H{opacity:.1}.I{opacity:.2}.J{opacity:.5}.K{fill:#fafafa}.L{opacity:.55}.M{fill:#f0997a}.N{opacity:.15}.O{fill:#ffbda7}.P{fill:#e0e0e0}]]></style><g id="B" class="B K" transform-origin="250px 348.74px"><ellipse cx="250" cy="348.74" rx="243.61" ry="145.8" transform-origin="250px 348.74px"/></g><g id="C" class="B P" transform-origin="247.595px 383.067px"><ellipse cx="428.72" cy="390.74" rx="59.72" ry="34.48" transform-origin="428.72px 390.74px"/><path d="M309.92 349.73l-45.57-26.31c-1.69-1-1.69-2.56 0-3.53l45.57-26.31a6.74 6.74 0 0 1 6.12 0l45.57 26.31c1.69 1 1.69 2.55 0 3.53L316 349.73a6.8 6.8 0 0 1-6.08 0z" transform-origin="312.98px 321.646px"/><path d="M347.33 466.68l-32-18.48a1.31 1.31 0 0 1 0-2.49l32-18.48a4.75 4.75 0 0 1 4.31 0l32 18.48a1.31 1.31 0 0 1 0 2.49l-32 18.48a4.75 4.75 0 0 1-4.31 0z" transform-origin="349.485px 446.955px"/><path d="M65.74 435.25l-58-33.6c-1.32-.76-1.32-2 0-2.76l139-80.24a5.32 5.32 0 0 1 4.79 0l58.07 33.55c1.32.76 1.32 2 0 2.76l-139.08 80.3a5.26 5.26 0 0 1-4.78-.01z" transform-origin="108.67px 376.955px"/><path d="M121.92,433.59a5.61,5.61,0,0,1-5.08,0L95,421c-1.4-.81-1.4-2.12,0-2.93L251.9,327.5a5.61,5.61,0,0,1,5.08,0l21.81,12.59c1.4.81,1.41,2.13,0,3Z" transform-origin="186.897px 380.545px"/><path d="M324.76 400.74s-4.28 2.48-13.23 0L242 440.86c-4.28 2.48-23.16 5.74-23.16 5.74l-36.4 21-6.78 2.4-.81-.43 4.31-3.82 36.4-21s9.93-9.56 13.23-11.47l69.5-40.12s-4-5.32 0-7.64c5.06-1.97 30.16 12 26.47 15.22z" transform-origin="249.989px 427.665px"/><path d="M116 472.77l-32-18.49a1.31 1.31 0 0 1 0-2.48l32-18.48a4.72 4.72 0 0 1 4.3 0l32 18.48a1.31 1.31 0 0 1 0 2.48l-32 18.49a4.72 4.72 0 0 1-4.3 0z" transform-origin="118.15px 453.045px"/></g><g id="D" class="B" transform-origin="316.557px 296.239px"><g transform-origin="316.557px 296.239px"><path d="M330.07,250l-17.61,48.37c-.79,1.56,1.85,2.43,3,1.75a3,3,0,0,0,.83-.89l17.3-47.37Z" class="E" transform-origin="322.952px 275.177px"/><path class="F" d="M306.25 319.92l-26.75-15.51.83-3.7 26.75 15.51-.83 3.7z" transform-origin="293.29px 310.315px"/><path d="M287.22,277.23,271,321.78c-.79,1.57,1.85,2.43,3,1.76a1.62,1.62,0,0,0,.81-.87v0l15.8-43.24Z" class="E" transform-origin="280.732px 300.5px"/><path class="F" d="M348.27 295.54l-25.3-14.66 1.27-3.45 24.86 14.42-.83 3.69z" transform-origin="336.035px 286.485px"/><path d="M356.23 320.42a2.62 2.62 0 0 0 0-.35l-13.73-64.26-5.5-3.15 14.53 67.9a1.16 1.16 0 0 0 .57.67 4 4 0 0 0 3.58 0 1 1 0 0 0 .55-.6 1.72 1.72 0 0 0 0-.21z" class="G" transform-origin="346.618px 287.156px"/><path d="M309.91 312.84l-15.08-8.71a2 2 0 0 1-.9-1.55v-.36a2 2 0 0 1 .9-1.56l44.44-25.78a2 2 0 0 1 1.8 0l15.08 8.71a2 2 0 0 1 .9 1.56v.36a2 2 0 0 1-.9 1.55l-44.44 25.78a2 2 0 0 1-1.8 0z" class="C" transform-origin="325.49px 293.86px"/><g><path d="M294.19,301.33a1.86,1.86,0,0,0-.26.89v.36a2,2,0,0,0,.9,1.55l15.08,8.71a1.87,1.87,0,0,0,.9.21v-2.13Z" class="H" transform-origin="302.37px 307.19px"/></g><g><path d="M310.81,310.92v2.13a1.9,1.9,0,0,0,.9-.21l18.08-10.44,26.36-15.34a2,2,0,0,0,.9-1.55v-.36a1.86,1.86,0,0,0-.26-.89Z" class="N" transform-origin="333.93px 298.655px"/></g><path d="M315.12 335.28L300 326.57a2 2 0 0 1-.9-1.55v-.36a2 2 0 0 1 .9-1.56l44.45-25.78a2 2 0 0 1 1.8 0l15.11 8.68a2 2 0 0 1 .9 1.56v.35a2 2 0 0 1-.9 1.56l-44.44 25.78a2 2 0 0 1-1.8.03z" class="C" transform-origin="330.68px 316.293px"/><g><path d="M299.41,323.77a1.88,1.88,0,0,0-.27.89V325a2,2,0,0,0,.9,1.55l15.08,8.71a1.87,1.87,0,0,0,.9.21v-2.13Z" class="H" transform-origin="307.58px 329.62px"/></g><g><path d="M316,333.36v2.13a1.87,1.87,0,0,0,.9-.21L335,324.84l26.35-15.34a2,2,0,0,0,.9-1.56v-.35a1.86,1.86,0,0,0-.26-.89Z" class="N" transform-origin="339.125px 321.095px"/></g><path d="M305.45 290.39l-25.06-14.46a2 2 0 0 1-.9-1.56V274a2 2 0 0 1 .9-1.56l44.45-25.77a2 2 0 0 1 1.8 0l25.05 14.46a2 2 0 0 1 .9 1.56v.36a2 2 0 0 1-.9 1.55l-44.44 25.78a2 2 0 0 1-1.8.01z" class="C" transform-origin="316.04px 268.528px"/><g><path d="M306.35,288.47v2.13a1.9,1.9,0,0,0,.9-.21L325.33,280l26.36-15.34a2,2,0,0,0,.9-1.55v-.36a1.86,1.86,0,0,0-.26-.89Z" class="N" transform-origin="329.47px 276.23px"/></g><g><path d="M279.76,273.12a1.91,1.91,0,0,0-.27.89v.36a2,2,0,0,0,.9,1.56l25.06,14.46a1.87,1.87,0,0,0,.9.21v-2.13Z" class="H" transform-origin="292.92px 281.86px"/></g><path d="M302.22,288.53l11.95,55.93a1.18,1.18,0,0,1,.05.37,1.16,1.16,0,0,1,0,.17,1.14,1.14,0,0,1-.56.6,3.61,3.61,0,0,1-1.79.42,3.54,3.54,0,0,1-1.79-.42,1.24,1.24,0,0,1-.51-.47l-.06-.18,0-.07-12.74-59.51" class="G" transform-origin="305.497px 315.696px"/></g></g><g id="E" class="B" transform-origin="97.9517px 331.062px"><g transform-origin="97.9517px 331.062px"><path d="M128 342.31l-6.34 3.69a2.58 2.58 0 0 1-2.3 0l-2-1.17a2 2 0 0 1-.88-2l21-99.64a3.39 3.39 0 0 1 1.43-2l6.33-3.66a2.61 2.61 0 0 1 2.31 0l2 1.17a1.94 1.94 0 0 1 .88 2l-21.05 99.64a3.42 3.42 0 0 1-1.38 1.97z" class="G" transform-origin="133.458px 291.766px"/><path d="M128 342.31l-6.34 3.69c-.64.36-1 .08-.88-.64l21.05-99.64a3.39 3.39 0 0 1 1.43-2l6.33-3.65c.64-.37 1-.09.88.63l-21.05 99.64a3.42 3.42 0 0 1-1.42 1.97z" class="F" transform-origin="135.625px 293.032px"/><path class="E" d="M124.61 335.8l1.88-8.89 4.32-2.49 40 23.1 1.88 11.06-4.32 2.48-43.76-25.26z" transform-origin="148.65px 342.74px"/><path class="G" d="M168.37 361.06l-43.76-25.26 1.88-8.89 40 23.1 1.88 11.05z" transform-origin="146.49px 343.985px"/><g class="E"><path d="M175.51 369.74l-6.34 3.66a2.58 2.58 0 0 1-2.3 0l-2-1.17a3.19 3.19 0 0 1-1.37-2L142.33 245.7a2 2 0 0 1 .93-2l6.33-3.65a2.54 2.54 0 0 1 2.31 0l2 1.16a3.23 3.23 0 0 1 1.38 2l21.15 124.55a2.07 2.07 0 0 1-.92 1.98z" transform-origin="159.376px 306.721px"/><path d="M142.33 245.7l.8 4.71 20.35 119.84a3.19 3.19 0 0 0 1.37 2l2 1.17a2.61 2.61 0 0 0 2.31 0l6.32-3.66a2.06 2.06 0 0 0 .94-2l-21.06-124.13-.07-.42a3.25 3.25 0 0 0-1.37-2l-2-1.17a2.61 2.61 0 0 0-2.31 0l-6.34 3.66a2.07 2.07 0 0 0-.94 2z" transform-origin="159.375px 306.73px"/></g><path d="M155.29 243.21l21.15 124.55a2.07 2.07 0 0 1-.93 2l-6.34 3.66a.86.86 0 0 1-1.37-.65l-21.15-124.58a2 2 0 0 1 .93-2l6.33-3.66a.87.87 0 0 1 1.38.68z" class="G" transform-origin="161.542px 307.976px"/><g><path d="M136.49,248.05l3.32,1.91a5,5,0,0,0,3.32.45,4.31,4.31,0,0,0,1.28-.45l11-6.33-.07-.42a3.25,3.25,0,0,0-1.37-2l-2-1.17a2.61,2.61,0,0,0-2.31,0c.16-.71.64-1,0-1.33l-2-1.16a2.54,2.54,0,0,0-2.31,0l-6.33,3.66a3.36,3.36,0,0,0-1.43,2Z" class="N" transform-origin="145.95px 243.894px"/></g><path d="M132.64 240.28a1.63 1.63 0 0 1 1-1.35l12.67-7.31a5.06 5.06 0 0 1 4.61 0l6.2 3.58a1.6 1.6 0 0 1 .95 1.31v2.89a1.61 1.61 0 0 1-.95 1.33l-12.67 7.32a5.13 5.13 0 0 1-4.61 0l-6.2-3.59a1.63 1.63 0 0 1-1-1.31v-2.87z" class="E" transform-origin="145.355px 239.831px"/><path d="M132.64 240.28a1.63 1.63 0 0 1 1-1.35l8.51-4.91v14.58a4.81 4.81 0 0 1-2.31-.55l-6.2-3.59a1.63 1.63 0 0 1-1-1.31v-2.87z" class="F" transform-origin="137.395px 241.31px"/><g class="G"><path d="M144.41 245.17l12.67-7.31c1.27-.74 1.27-1.93 0-2.66l-6.2-3.58a5.06 5.06 0 0 0-4.61 0l-12.67 7.31c-1.27.74-1.27 1.93 0 2.66l6.2 3.58a5.06 5.06 0 0 0 4.61 0z" transform-origin="145.34px 238.395px"/><path d="M28.63 399.68l-6.33 3.65a2.54 2.54 0 0 1-2.31 0l-2-1.16a2 2 0 0 1-.88-2l21-99.64a3.37 3.37 0 0 1 1.42-2l6.34-3.66a2.52 2.52 0 0 1 2.3 0l2 1.16a2 2 0 0 1 .88 2l-21 99.64a3.39 3.39 0 0 1-1.42 2.01z" transform-origin="34.08px 349.1px"/></g><path d="M28.63 399.68l-6.33 3.65c-.64.37-1 .09-.88-.63l21-99.64a3.42 3.42 0 0 1 1.42-2l6.34-3.66c.64-.36 1-.08.88.64l-21 99.64a3.39 3.39 0 0 1-1.43 2z" class="F" transform-origin="36.24px 350.368px"/><path class="E" d="M25.14 393.32l1.88-8.89 4.31-2.49 40 23.1 1.88 11.05-4.31 2.49-43.76-25.26z" transform-origin="49.175px 400.26px"/><path class="G" d="M68.9 418.58l-43.76-25.26 1.88-8.89 40 23.09 1.88 11.06z" transform-origin="47.02px 401.505px"/><g class="E"><path d="M76.14 427.11l-6.33 3.65a2.52 2.52 0 0 1-2.3 0l-2-1.16a3.17 3.17 0 0 1-1.37-2L43 303.07a2.07 2.07 0 0 1 .93-2l6.34-3.66a2.58 2.58 0 0 1 2.3 0l2 1.17a3.19 3.19 0 0 1 1.37 2l21.13 124.55a2 2 0 0 1-.93 1.98z" transform-origin="60.0364px 364.089px"/><path d="M43 303.06l.8 4.71 20.31 119.85a3.27 3.27 0 0 0 1.38 2l2 1.17a2.58 2.58 0 0 0 2.3 0l6.33-3.66a2.08 2.08 0 0 0 .94-2L56 301l-.07-.42a3.24 3.24 0 0 0-1.38-2l-2-1.17a2.58 2.58 0 0 0-2.3 0l-6.34 3.66a2.07 2.07 0 0 0-.91 1.99z" transform-origin="60.0291px 364.1px"/></g><path d="M55.92 300.57l21.15 124.56a2 2 0 0 1-.93 2l-6.33 3.65a.87.87 0 0 1-1.38-.64L47.28 305.56a2.08 2.08 0 0 1 .93-2l6.34-3.65a.86.86 0 0 1 1.37.66z" class="G" transform-origin="62.1781px 365.344px"/><g><path d="M37.13,305.41l3.31,1.92a5,5,0,0,0,3.32.44,4,4,0,0,0,1.29-.44L56,301l-.07-.42a3.24,3.24,0,0,0-1.38-2l-2-1.17a2.58,2.58,0,0,0-2.3,0c.16-.71.63-1,0-1.33l-2-1.16a2.54,2.54,0,0,0-2.31,0l-6.34,3.66a3.33,3.33,0,0,0-1.42,2Z" class="N" transform-origin="46.565px 301.261px"/></g><path d="M33.28 297.65a1.6 1.6 0 0 1 .95-1.35l12.68-7.3a5.1 5.1 0 0 1 4.6 0l6.21 3.59a1.61 1.61 0 0 1 1 1.31v2.89a1.63 1.63 0 0 1-1 1.33L45 305.41a5 5 0 0 1-4.6 0l-6.21-3.58a1.65 1.65 0 0 1-.95-1.31l.04-2.87z" class="E" transform-origin="45.98px 297.211px"/><path d="M33.28 297.65a1.6 1.6 0 0 1 .95-1.35l8.51-4.91V306a4.69 4.69 0 0 1-2.3-.55l-6.21-3.58a1.65 1.65 0 0 1-.95-1.31v-2.91z" class="F" transform-origin="38.0086px 298.695px"/><path d="M45 302.54l12.68-7.32c1.27-.73 1.27-1.92 0-2.65L51.51 289a5.1 5.1 0 0 0-4.6 0l-12.68 7.3c-1.27.73-1.27 1.92 0 2.66l6.21 3.58a5 5 0 0 0 4.56 0z" class="G" transform-origin="45.955px 295.771px"/><path class="C" d="M38.42 319.21l133.9-77.3-2.18-1.26-133.9 77.3 2.18 1.26z" transform-origin="104.28px 279.93px"/><g class="D"><path d="M38.42 319.21l133.9-77.3-2.18-1.26-133.9 77.3 2.18 1.26z" opacity=".4" transform-origin="104.28px 279.93px"/></g><path class="C" d="M38.42 319.21l6.5 38.67 133.9-77.31-6.5-38.66-133.9 77.3z" transform-origin="108.62px 299.895px"/><path class="P" d="M36.24 317.95l6.5 38.67 2.18 1.26-6.5-38.67-2.18-1.26z" transform-origin="40.58px 337.915px"/><g fill="#ebebeb"><path d="M50.71 312.12l-5.79 45.76-6.5-38.67 12.29-7.09z" transform-origin="44.565px 335px"/><path d="M166.53 287.66l5.79-45.75 6.5 38.66-12.29 7.09z" transform-origin="172.675px 264.785px"/><path d="M67.4 344.9l5.79-45.76-13.3 7.67-5.79 45.75 13.3-7.66z" transform-origin="63.645px 325.85px"/><path d="M89.89 331.92l5.78-45.76-13.29 7.67-5.79 45.75 13.3-7.66z" transform-origin="86.13px 312.87px"/><path d="M112.38 318.94l5.78-45.76-13.3 7.67-5.78 45.75 13.3-7.66z" transform-origin="108.62px 299.89px"/><path d="M134.86 305.95l5.79-45.75-13.3 7.67-5.79 45.75 13.3-7.67z" transform-origin="131.105px 286.91px"/><path d="M157.35 292.97l5.78-45.75-13.3 7.67-5.78 45.75 13.3-7.67z" transform-origin="153.59px 273.93px"/></g><g class="K"><path d="M59.89 306.81l-2.18-1.26 13.3-7.67 2.18 1.26-13.3 7.67z" transform-origin="65.45px 302.345px"/><path d="M82.38 293.83l-2.18-1.26 13.3-7.67 2.17 1.26-13.29 7.67z" transform-origin="87.935px 289.365px"/><path d="M104.86 280.85l-2.18-1.26 13.3-7.67 2.18 1.26-13.3 7.67z" transform-origin="110.42px 276.385px"/><path d="M127.35 267.87l-2.18-1.26 13.3-7.67 2.18 1.26-13.3 7.67z" transform-origin="132.91px 263.405px"/><path d="M149.83 254.89l-2.17-1.26 13.3-7.67 2.17 1.26-13.3 7.67z" transform-origin="155.395px 250.425px"/><path d="M38.42 319.21l-2.18-1.26 12.29-7.09 2.18 1.26-12.29 7.09z" transform-origin="43.475px 315.035px"/></g></g></g><g id="F" class="B" transform-origin="248.976px 413.967px"><g transform-origin="248.976px 413.967px"><path d="M235.41 417.94c-3.65-2.11-6.61-.4-6.61 3.82a14.63 14.63 0 0 0 6.61 11.46c3.66 2.11 6.62.4 6.62-3.82a14.61 14.61 0 0 0-6.62-11.46z" class="P" transform-origin="235.415px 425.58px"/><path d="M304.81 368.19h0c1.92-1.35 4.69-1.3 7.79.49 5.8 3.35 10.5 11.5 10.5 18.2 0 3.7-1.44 6.18-3.7 7.1h0c-4.82 2.7-10.76.09-10.76.09l-8.42-16.75c.01-4.45 1.78-7.44 4.59-9.13z" class="C" transform-origin="311.66px 381.226px"/><g><path d="M304.81 368.19h0c1.92-1.35 4.69-1.3 7.79.49 5.8 3.35 10.5 11.5 10.5 18.2 0 3.7-1.44 6.18-3.7 7.1h0c-4.82 2.7-10.76.09-10.76.09l-8.42-16.75c.01-4.45 1.78-7.44 4.59-9.13z" class="H" transform-origin="311.66px 381.226px"/></g><g><path d="M310.93,385.8a13.42,13.42,0,0,0,11-5.16,19,19,0,0,1,1.18,6.26c0,3.7-1.44,6.18-3.7,7.1h0c-4,2.26-8.84.8-10.3.27a1,1,0,0,0-.46-.18l-2.72-5.41Z" class="H" transform-origin="314.52px 387.932px"/></g><path d="M214.45 431.69h0s14.7-13.31 16.25-14.2l69.53-40.14h0 0 0c1.19-.68 2.84-.57 4.65.47a14.66 14.66 0 0 1 6.62 11.47c0 2.1-.74 3.59-1.94 4.28h0l-69.51 40.13c-2.87 1.64-20.34 6.94-20.34 6.94h0a2.62 2.62 0 0 1-2.53-.29 8.14 8.14 0 0 1-3.68-6.38 2.7 2.7 0 0 1 .95-2.28z" class="C" transform-origin="262.496px 408.881px"/><g><path d="M213.53 434a2.7 2.7 0 0 1 .92-2.27s13.59-12.3 16-14c1.21-.89 3-.86 4.95.28a14.61 14.61 0 0 1 6.6 11.39c0 2.12-.74 3.6-1.94 4.29h0c-2.87 1.65-20.34 6.94-20.34 6.94h0a2.62 2.62 0 0 1-2.53-.29 8.14 8.14 0 0 1-3.66-6.34z" class="H" transform-origin="227.76px 428.967px"/></g><path d="M273.18 414.59c1.2-.69 1.95-2.18 1.95-4.29a14.66 14.66 0 0 0-6.62-11.47c-1.83-1.05-3.48-1.15-4.68-.46 0 0-3.84 1.56-16.31 8.1s-10.19 7.2-10.19 7.2l.9-.52c1.2-.69 2.85-.59 4.68.47a14.64 14.64 0 0 1 6.62 11.46c0 2.11-.75 3.59-1.94 4.29l-1.21.69s1.63.52 10.22-4.48a196.28 196.28 0 0 0 16.58-10.99z" class="E" transform-origin="256.148px 414.003px"/><path d="M268.51 398.83c-1.83-1.05-3.48-1.15-4.68-.46 0 0-3.84 1.56-16.31 8.1s-10.19 7.2-10.19 7.2l.9-.52c1.2-.69 2.85-.59 4.68.47a11.74 11.74 0 0 1 2.8 2.34l25.6-14.78a11.79 11.79 0 0 0-2.8-2.35z" class="G" transform-origin="254.238px 406.945px"/><g><path d="M220.9 438.21a8.12 8.12 0 0 0-3.69-6.37c-2-1.18-3.68-.23-3.68 2.12a8.14 8.14 0 0 0 3.68 6.38c2.04 1.17 3.69.22 3.69-2.13z" opacity=".25" transform-origin="217.215px 436.087px"/></g><path d="M174.85 460.28a.48.48 0 0 0 .22.39.16.16 0 0 0 .14 0h0l6.84-2.59.42-.19 35.5-20.5a.75.75 0 0 0 .34-.71 2.32 2.32 0 0 0-.32-1.08 2.28 2.28 0 0 0-.78-.82.78.78 0 0 0-.77-.07l-35.52 20.51a9.19 9.19 0 0 0-.94.67l-5.09 4.22h0a.17.17 0 0 0-.04.17z" class="G" transform-origin="196.578px 447.663px"/><path d="M174.85 460.28a.48.48 0 0 0 .22.39.16.16 0 0 0 .14 0h0l6.84-2.59c-.46-.44-1.45-.2-2.4.22s-4.24 2.2-4.42 2 2.1-1.55 3.45-2.54 1.67-1.78 1.3-1.85l-5.09 4.22h0a.17.17 0 0 0-.04.15z" class="E" transform-origin="178.448px 458.298px"/><g class="D"><path d="M216.83 435.2l-35.92 20.73c-.27.21-.5.71-1.11 1.26a22.89 22.89 0 0 1-2.83 2c-2.27 1.44.6.16 3.14-1.56.58-.39.69-1.35 1.35-1.72l36.13-19.93s-.34-.68-.76-.78z" class="I" transform-origin="196.868px 447.507px"/></g></g></g><g id="G" class="B" transform-origin="177.746px 225.043px"><g transform-origin="177.746px 225.043px"><path d="M256.59 332.24V41.55c0-5.73-.25-10.38-6.32-14s-10.35-1.36-15.27 1.51l-127.11 73.36c-5 2.87-9 9.84-9 15.57v290.69c0 5.73 2.83 12 6.32 14s10.35 1.32 15.31-1.54l127.09-73.34a16.89 16.89 0 0 0 8.98-15.56z" class="E" transform-origin="177.746px 224.753px"/><path d="M248.51,335.15,117.84,410.59l0-292-16.35-9.44A18.33,18.33,0,0,0,98.9,118V408.68c0,5.73.67,10.68,6.32,14s10.35,1.32,15.31-1.54L247.61,347.8a17.17,17.17,0,0,0,7.78-8.68l-.51-.29Z" class="F" transform-origin="177.145px 266.778px"/><path d="M247.37 38.89l-127.44 73.58a14 14 0 0 0-6.31 10.92v288.18c0 6.16 4.37 8.67 9.7 5.59l124.05-71.61a15.88 15.88 0 0 0 7.15-12.38V43c0-4.53-3.22-6.38-7.15-4.11z" class="G" transform-origin="184.07px 228.198px"/><path d="M248.3 57.6v268.28a15 15 0 0 1-6.79 11.77L126.63 404c-3.75 2.18-6.79.43-6.79-3.91V129.7a15.2 15.2 0 0 1 4.76-10.24l.65-.58a11.21 11.21 0 0 1 1.38-.94l32.31-18.66 2.11-1.22c1.16-.67 2.1-.13 2.1 1.22s1 1.86 2.26 1.13l37.66-21.74a4.86 4.86 0 0 0 2.25-3.73 4.75 4.75 0 0 1 1.89-3.52 1.28 1.28 0 0 1 .21-.14L239 53l.68-.4c4.76-2.69 8.62-.45 8.62 5z" class="F" transform-origin="184.07px 228.2px"/><path d="M239,53V319.51a15.07,15.07,0,0,1-6.78,11.77l-112.41,64.9V129.7a15.2,15.2,0,0,1,4.76-10.24l.65-.58a11.21,11.21,0,0,1,1.38-.94l32.31-18.66,2.11-1.22c1.16-.67,2.1-.13,2.1,1.22s1,1.86,2.26,1.13l37.66-21.74a4.86,4.86,0,0,0,2.25-3.73,4.75,4.75,0,0,1,1.89-3.52,1.28,1.28,0,0,1,.21-.14Z" transform-origin="179.405px 224.59px"/><g class="F"><path d="M171.12 88.93l17.27-10c1-.6 1.86-.17 1.86.94a4 4 0 0 1-1.86 3.1L171.12 93c-1 .59-1.86.17-1.86-1a4 4 0 0 1 1.86-3.07z" transform-origin="179.755px 85.9619px"/><path d="M197.25 73c1.16-.67 2.1-.13 2.1 1.21a4.65 4.65 0 0 1-2.1 3.64c-1.16.67-2.1.12-2.1-1.22a4.6 4.6 0 0 1 2.1-3.63z" transform-origin="197.25px 75.424px"/></g><path d="M110.69 154.91a7.61 7.61 0 0 0-3.32-6 2.2 2.2 0 0 0-2.28-.18l-2.49 1.42a2.61 2.61 0 0 0-1 2.36v25.07a7.59 7.59 0 0 0 3.33 6 2.22 2.22 0 0 0 2.19.23l2.57-1.47a2.59 2.59 0 0 0 1-2.36z" class="G" transform-origin="106.146px 166.246px"/><path d="M108.22 156.33v25.08c0 2.26-1.49 3.23-3.32 2.17a7.59 7.59 0 0 1-3.33-6V152.5c0-2.26 1.49-3.23 3.33-2.17a7.61 7.61 0 0 1 3.32 6z" class="E" transform-origin="104.895px 166.955px"/><path d="M110.69 198.8a7.61 7.61 0 0 0-3.32-6 2.23 2.23 0 0 0-2.28-.19l-2.49 1.43a2.59 2.59 0 0 0-1 2.35v25.08a7.59 7.59 0 0 0 3.33 6 2.25 2.25 0 0 0 2.19.23l2.57-1.47a2.61 2.61 0 0 0 1-2.36z" class="G" transform-origin="106.145px 210.133px"/><path d="M108.22 200.22v25.08c0 2.25-1.49 3.22-3.32 2.17a7.59 7.59 0 0 1-3.33-6v-25.09c0-2.25 1.49-3.23 3.33-2.17a7.61 7.61 0 0 1 3.32 6.01z" class="E" transform-origin="104.895px 210.838px"/></g></g><g id="H" class="B" transform-origin="191.313px 242.52px"><g transform-origin="184.095px 193.865px"><path d="M230.72 164.27h0l-8.26-4.74h0a.94.94 0 0 0-.85 0l-5.61 2.56a2.5 2.5 0 0 1 .17-1.37l6.51-13.13a1.47 1.47 0 0 0-.58-1.91l-7.1-4.08h0l-8.21-4.72a1.48 1.48 0 0 0-1.95.45l-8.11 12.21a2.48 2.48 0 0 1-1.07.82l-.62-6.19a.94.94 0 0 0-.42-.74h0l-8.27-4.75h0a.9.9 0 0 0-.89.07l-11 6.34a3 3 0 0 0-1.31 2l-1.1 12.21a4.1 4.1 0 0 1-1.14 2.28 65.81 65.81 0 0 0-6.1 6.46 2.11 2.11 0 0 1-2.16.61l-7-2.46a1.73 1.73 0 0 0-2 .73l-8.07 14a1.74 1.74 0 0 0 .36 2.09l5.65 4.87a2.11 2.11 0 0 1 .55 2.17 64.48 64.48 0 0 0-2.54 8.51 4.1 4.1 0 0 1-1.41 2.12l-10 7.06a3 3 0 0 0-1.12 2.16v12.67a.91.91 0 0 0 .39.82h0l8.27 4.74h0a.91.91 0 0 0 .85 0l5.64-2.54A2.5 2.5 0 0 1 152 227l-6.51 13.13a1.48 1.48 0 0 0 .57 1.91l9.93 5.7h0l5.38 3.1a1.48 1.48 0 0 0 2-.45l8.11-12.21a2.42 2.42 0 0 1 1.07-.82l.62 6.19a.92.92 0 0 0 .43.75h0l8.2 4.7h0a.89.89 0 0 0 .9-.06l11-6.34a3 3 0 0 0 1.31-2.05l1.1-12.21a4.1 4.1 0 0 1 1.14-2.28 66.84 66.84 0 0 0 6.1-6.45 2.1 2.1 0 0 1 2.15-.62l7.05 2.46a1.73 1.73 0 0 0 2-.73l8.07-14a1.72 1.72 0 0 0-.36-2.08l-5.65-4.88a2.11 2.11 0 0 1-.55-2.17 64.48 64.48 0 0 0 2.54-8.51A4.1 4.1 0 0 1 220 187l10-7.06a3 3 0 0 0 1.12-2.16v-12.69a.91.91 0 0 0-.4-.82zm-61.07 42.64c0-11.83 8.31-26.2 18.55-32.12 4-2.31 7.7-3 10.74-2.23 1.56 2.18 2.4 5.49 2.4 9.83 0 11.82-8.3 26.2-18.54 32.11-4 2.31-7.41 3.06-10.08 2.43-1.94-2.27-3.07-5.67-3.07-10.02z" class="C" transform-origin="184.095px 193.871px"/><g class="D"><path d="M230.72 164.27h0l-8.26-4.74h0a.94.94 0 0 0-.85 0l-5.61 2.56a2.5 2.5 0 0 1 .17-1.37l6.51-13.13a1.47 1.47 0 0 0-.58-1.91l-7.1-4.08h0l-8.21-4.72a1.48 1.48 0 0 0-1.95.45l-8.11 12.21a2.48 2.48 0 0 1-1.07.82l-.62-6.19a.94.94 0 0 0-.42-.74h0l-8.27-4.75h0a.9.9 0 0 0-.89.07l-11 6.34a3 3 0 0 0-1.31 2l-1.1 12.21a4.1 4.1 0 0 1-1.14 2.28 65.81 65.81 0 0 0-6.1 6.46 2.11 2.11 0 0 1-2.16.61l-7-2.46a1.73 1.73 0 0 0-2 .73l-8.07 14a1.74 1.74 0 0 0 .36 2.09l5.65 4.87a2.11 2.11 0 0 1 .55 2.17 64.48 64.48 0 0 0-2.54 8.51 4.1 4.1 0 0 1-1.41 2.12l-10 7.06a3 3 0 0 0-1.12 2.16v12.67a.91.91 0 0 0 .39.82h0l8.27 4.74h0a.91.91 0 0 0 .85 0l5.64-2.54A2.5 2.5 0 0 1 152 227l-6.51 13.13a1.48 1.48 0 0 0 .57 1.91l9.93 5.7h0l5.38 3.1a1.48 1.48 0 0 0 2-.45l8.11-12.21a2.42 2.42 0 0 1 1.07-.82l.62 6.19a.92.92 0 0 0 .43.75h0l8.2 4.7h0a.89.89 0 0 0 .9-.06l11-6.34a3 3 0 0 0 1.31-2.05l1.1-12.21a4.1 4.1 0 0 1 1.14-2.28 66.84 66.84 0 0 0 6.1-6.45 2.1 2.1 0 0 1 2.15-.62l7.05 2.46a1.73 1.73 0 0 0 2-.73l8.07-14a1.72 1.72 0 0 0-.36-2.08l-5.65-4.88a2.11 2.11 0 0 1-.55-2.17 64.48 64.48 0 0 0 2.54-8.51A4.1 4.1 0 0 1 220 187l10-7.06a3 3 0 0 0 1.12-2.16v-12.69a.91.91 0 0 0-.4-.82zm-61.07 42.64c0-11.83 8.31-26.2 18.55-32.12 4-2.31 7.7-3 10.74-2.23 1.56 2.18 2.4 5.49 2.4 9.83 0 11.82-8.3 26.2-18.54 32.11-4 2.31-7.41 3.06-10.08 2.43-1.94-2.27-3.07-5.67-3.07-10.02z" class="I" transform-origin="184.095px 193.871px"/></g><g><path d="M157.92 224.47a1.15 1.15 0 0 0-1.62-.75l-4.12 1.85A2.35 2.35 0 0 1 152 227l-6.51 13.13a1.47 1.47 0 0 0 .58 1.91l9.92 5.7-1.67-1a1.46 1.46 0 0 1-.58-1.9l6.51-13.13a2.71 2.71 0 0 0-.15-2.37 22.7 22.7 0 0 1-2.18-4.87zM181.71 249a1.1 1.1 0 0 1-.33-.7l-1.07-10.66a1.15 1.15 0 0 0-1.46-1 22.39 22.39 0 0 1-5.29.53 2.52 2.52 0 0 0-1.05.23l.62 6.19a.9.9 0 0 0 .42.75h0z" class="H" transform-origin="163.526px 236.302px"/></g><g><path d="M206.73 185.5c0 11.82-8.29 26.2-18.53 32.11-6.47 3.74-12.17 3.2-15.49-.69 2.66.65 6.08-.1 10.09-2.42 10.24-5.91 18.54-20.29 18.54-32.11 0-4.33-.83-7.65-2.39-9.84 4.71 1.16 7.78 5.75 7.78 12.95z" class="H" transform-origin="189.72px 196.347px"/></g><path d="M206.75,136.86a1.48,1.48,0,0,0-1.94.47l-8.12,12.2a2.19,2.19,0,0,1-.53.52l8.26,4.74a1.91,1.91,0,0,0,.53-.53l8.11-12.21a1.51,1.51,0,0,1,1.78-.53Zm15.7,22.66h0a.94.94,0,0,0-.85,0L216,162.1a2.82,2.82,0,0,0,.33,1,21.43,21.43,0,0,1,2.09,4.61.92.92,0,0,1,.09.23,1.28,1.28,0,0,0,.29.51l.14.13a1.41,1.41,0,0,0,.32.17,1,1,0,0,0,.61,0,1,1,0,0,0,.27-.08l9.76-4.41a1.44,1.44,0,0,1,.25-.08.5.5,0,0,1,.34,0,.66.66,0,0,1,.28.09h0Zm-36.14-20.86a.87.87,0,0,0-.88.09l-11,6.33a2.81,2.81,0,0,0-1.1,1.33l8.24,4.73a2.8,2.8,0,0,1,1.11-1.32l11-6.34a.93.93,0,0,1,.84-.11Zm-37.37,61.22a3.3,3.3,0,0,1-.76.81l-10,7.06a2.77,2.77,0,0,0-.67.76l8.24,4.73a2.36,2.36,0,0,1,.68-.75l10-7.06a3.21,3.21,0,0,0,.77-.82Zm6.1-33.73a1.73,1.73,0,0,0-1.41.81l-8.07,14a1.71,1.71,0,0,0-.18,1l8.25,4.75a1.6,1.6,0,0,1,.18-1l8.08-14a1.71,1.71,0,0,1,1.3-.81Z" class="C" transform-origin="184.14px 174.959px"/><g class="D"><path d="M206.75,136.86a1.48,1.48,0,0,0-1.94.47l-8.12,12.2a2.19,2.19,0,0,1-.53.52l8.26,4.74a1.91,1.91,0,0,0,.53-.53l8.11-12.21a1.51,1.51,0,0,1,1.78-.53Zm15.7,22.66h0a.94.94,0,0,0-.85,0L216,162.1a2.82,2.82,0,0,0,.33,1,21.43,21.43,0,0,1,2.09,4.61.92.92,0,0,1,.09.23,1.28,1.28,0,0,0,.29.51l.14.13a1.41,1.41,0,0,0,.32.17,1,1,0,0,0,.61,0,1,1,0,0,0,.27-.08l9.76-4.41a1.44,1.44,0,0,1,.25-.08.5.5,0,0,1,.34,0,.66.66,0,0,1,.28.09h0Zm-36.14-20.86a.87.87,0,0,0-.88.09l-11,6.33a2.81,2.81,0,0,0-1.1,1.33l8.24,4.73a2.8,2.8,0,0,1,1.11-1.32l11-6.34a.93.93,0,0,1,.84-.11Zm-37.37,61.22a3.3,3.3,0,0,1-.76.81l-10,7.06a2.77,2.77,0,0,0-.67.76l8.24,4.73a2.36,2.36,0,0,1,.68-.75l10-7.06a3.21,3.21,0,0,0,.77-.82Zm6.1-33.73a1.73,1.73,0,0,0-1.41.81l-8.07,14a1.71,1.71,0,0,0-.18,1l8.25,4.75a1.6,1.6,0,0,1,.18-1l8.08-14a1.71,1.71,0,0,1,1.3-.81Z" opacity=".7" transform-origin="184.14px 174.959px"/></g><path d="M231.11 177.76v-12.67a.82.82 0 0 0-1.25-.81l-9.77 4.4a1.15 1.15 0 0 1-1.62-.75 21.88 21.88 0 0 0-2.18-4.84 2.71 2.71 0 0 1-.15-2.37l6.51-13.13a1.47 1.47 0 0 0-.58-1.91L215 141.6a1.48 1.48 0 0 0-1.95.46l-8.05 12.2a2.74 2.74 0 0 1-2.12 1.06 21.88 21.88 0 0 0-5.29.53 1.15 1.15 0 0 1-1.46-1L195 144.16a.82.82 0 0 0-1.33-.68l-11 6.34a2.92 2.92 0 0 0-1.31 2l-1.1 12.22a4.1 4.1 0 0 1-1.14 2.28 64.59 64.59 0 0 0-6.1 6.45 2.09 2.09 0 0 1-2.15.61l-7-2.46a1.73 1.73 0 0 0-2 .73l-8.07 14a1.72 1.72 0 0 0 .36 2.08l5.65 4.87a2.11 2.11 0 0 1 .55 2.17 67 67 0 0 0-2.54 8.51 4.17 4.17 0 0 1-1.4 2.13l-10 7.06a2.94 2.94 0 0 0-1.12 2.15v12.68a.82.82 0 0 0 1.25.8l9.77-4.4a1.15 1.15 0 0 1 1.62.75 22 22 0 0 0 2.18 4.85 2.66 2.66 0 0 1 .15 2.36l-6.51 13.13a1.46 1.46 0 0 0 .58 1.91l7.06 4.08a1.48 1.48 0 0 0 2-.45l8.11-12.21a2.73 2.73 0 0 1 2.13-1 21.88 21.88 0 0 0 5.28-.54 1.15 1.15 0 0 1 1.46 1l1.08 10.66a.82.82 0 0 0 1.32.68l11-6.34a3 3 0 0 0 1.31-2.05l1.1-12.21a4.1 4.1 0 0 1 1.14-2.28 66.84 66.84 0 0 0 6.1-6.45 2.1 2.1 0 0 1 2.15-.62l7.05 2.46a1.73 1.73 0 0 0 2-.73l8.07-14a1.72 1.72 0 0 0-.36-2.08l-5.65-4.88a2.11 2.11 0 0 1-.55-2.17 64.48 64.48 0 0 0 2.54-8.51A4.1 4.1 0 0 1 220 187l10-7.06a3 3 0 0 0 1.11-2.18zm-42.91 39.85c-10.24 5.91-18.55 1.12-18.55-10.7s8.31-26.2 18.55-32.12 18.54-1.12 18.54 10.71-8.3 26.2-18.54 32.11z" class="C" transform-origin="188.206px 196.202px"/><g class="D"><path d="M231.11 177.76v-12.67a.82.82 0 0 0-1.25-.81l-9.77 4.4a1.15 1.15 0 0 1-1.62-.75 21.88 21.88 0 0 0-2.18-4.84 2.71 2.71 0 0 1-.15-2.37l6.51-13.13a1.47 1.47 0 0 0-.58-1.91L215 141.6a1.48 1.48 0 0 0-1.95.46l-8.05 12.2a2.74 2.74 0 0 1-2.12 1.06 21.88 21.88 0 0 0-5.29.53 1.15 1.15 0 0 1-1.46-1L195 144.16a.82.82 0 0 0-1.33-.68l-11 6.34a2.92 2.92 0 0 0-1.31 2l-1.1 12.22a4.1 4.1 0 0 1-1.14 2.28 64.59 64.59 0 0 0-6.1 6.45 2.09 2.09 0 0 1-2.15.61l-7-2.46a1.73 1.73 0 0 0-2 .73l-8.07 14a1.72 1.72 0 0 0 .36 2.08l5.65 4.87a2.11 2.11 0 0 1 .55 2.17 67 67 0 0 0-2.54 8.51 4.17 4.17 0 0 1-1.4 2.13l-10 7.06a2.94 2.94 0 0 0-1.12 2.15v12.68a.82.82 0 0 0 1.25.8l9.77-4.4a1.15 1.15 0 0 1 1.62.75 22 22 0 0 0 2.18 4.85 2.66 2.66 0 0 1 .15 2.36l-6.51 13.13a1.46 1.46 0 0 0 .58 1.91l7.06 4.08a1.48 1.48 0 0 0 2-.45l8.11-12.21a2.73 2.73 0 0 1 2.13-1 21.88 21.88 0 0 0 5.28-.54 1.15 1.15 0 0 1 1.46 1l1.08 10.66a.82.82 0 0 0 1.32.68l11-6.34a3 3 0 0 0 1.31-2.05l1.1-12.21a4.1 4.1 0 0 1 1.14-2.28 66.84 66.84 0 0 0 6.1-6.45 2.1 2.1 0 0 1 2.15-.62l7.05 2.46a1.73 1.73 0 0 0 2-.73l8.07-14a1.72 1.72 0 0 0-.36-2.08l-5.65-4.88a2.11 2.11 0 0 1-.55-2.17 64.48 64.48 0 0 0 2.54-8.51A4.1 4.1 0 0 1 220 187l10-7.06a3 3 0 0 0 1.11-2.18zm-42.91 39.85c-10.24 5.91-18.55 1.12-18.55-10.7s8.31-26.2 18.55-32.12 18.54-1.12 18.54 10.71-8.3 26.2-18.54 32.11z" class="L" transform-origin="188.206px 196.202px"/></g><g class="D"><g class="L" transform-origin="188.22px 196.18px"><path d="M214.29,142.34a.43.43,0,0,1,.25.07l7.07,4.08a.54.54,0,0,1,.21.69l-6.51,13.13a3.59,3.59,0,0,0,.19,3.26,21.8,21.8,0,0,1,2.08,4.64,2.1,2.1,0,0,0,2,1.52,2.18,2.18,0,0,0,.9-.2l9.7-4.37v12.6a2,2,0,0,1-.72,1.4l-10,7.06a5,5,0,0,0-1.78,2.68,63.66,63.66,0,0,1-2.5,8.39,3,3,0,0,0,.81,3.2l5.66,4.87a.81.81,0,0,1,.15.91l-8.07,14a.8.8,0,0,1-.67.36.58.58,0,0,1-.19,0l-7.05-2.46a2.53,2.53,0,0,0-.87-.15,3.06,3.06,0,0,0-2.31,1,64.27,64.27,0,0,1-6,6.36,5.08,5.08,0,0,0-1.44,2.88l-1.09,12.22a2.08,2.08,0,0,1-.85,1.32l-10.92,6.3-1.06-10.59a2.07,2.07,0,0,0-2.09-1.9,2.92,2.92,0,0,0-.5,0,21.13,21.13,0,0,1-4.58.53h-.55a3.62,3.62,0,0,0-2.85,1.47l-8.12,12.2a.54.54,0,0,1-.45.23.51.51,0,0,1-.25-.06l-7.07-4.08a.54.54,0,0,1-.21-.69l6.51-13.13a3.61,3.61,0,0,0-.19-3.27,21.36,21.36,0,0,1-2.08-4.64,2.1,2.1,0,0,0-2-1.52,2.22,2.22,0,0,0-.9.2l-9.7,4.38V214.64a2,2,0,0,1,.73-1.39l10-7.06a5,5,0,0,0,1.78-2.69,65.08,65.08,0,0,1,2.5-8.38,3,3,0,0,0-.81-3.2l-5.65-4.87a.8.8,0,0,1-.16-.91l8.07-14a.82.82,0,0,1,.67-.35.58.58,0,0,1,.19,0l7,2.46a2.8,2.8,0,0,0,.88.14,3.06,3.06,0,0,0,2.3-1,66.56,66.56,0,0,1,6-6.36,5,5,0,0,0,1.44-2.88l1.1-12.21a2,2,0,0,1,.84-1.33l10.92-6.3,1.06,10.59a2.1,2.1,0,0,0,2.59,1.85,21.1,21.1,0,0,1,4.58-.52h.55a3.65,3.65,0,0,0,2.86-1.47l8.11-12.21a.54.54,0,0,1,.45-.23h0m-34.37,78.73a17.63,17.63,0,0,0,8.74-2.65c10.48-6,19-20.82,19-32.92,0-4.27-1.06-7.85-3-10.35a10.06,10.06,0,0,0-8.14-3.82,17.59,17.59,0,0,0-8.75,2.66c-10.48,6-19,20.82-19,32.92,0,8.6,4.4,14.16,11.2,14.16m34.37-79.66a1.48,1.48,0,0,0-1.23.65L205,154.26a2.7,2.7,0,0,1-2.08,1.06h-.55a22.53,22.53,0,0,0-4.78.54,1.53,1.53,0,0,1-.3,0,1.13,1.13,0,0,1-1.16-1.06L195,144.16c-.06-.54-.37-.84-.78-.84a1.11,1.11,0,0,0-.55.16l-11,6.34a2.92,2.92,0,0,0-1.31,2l-1.1,12.22a4.1,4.1,0,0,1-1.14,2.28,64.59,64.59,0,0,0-6.1,6.45,2.1,2.1,0,0,1-1.58.7,1.75,1.75,0,0,1-.57-.09l-7-2.46a1.42,1.42,0,0,0-.5-.08,1.75,1.75,0,0,0-1.48.81l-8.07,14a1.72,1.72,0,0,0,.36,2.08l5.65,4.87a2.11,2.11,0,0,1,.55,2.17,67,67,0,0,0-2.54,8.51,4.17,4.17,0,0,1-1.4,2.13l-10,7.06a2.94,2.94,0,0,0-1.12,2.15v12.68c0,.57.32.91.77.91a1.11,1.11,0,0,0,.48-.11l9.77-4.4a1.19,1.19,0,0,1,.51-.12,1.17,1.17,0,0,1,1.11.87,22,22,0,0,0,2.18,4.85,2.66,2.66,0,0,1,.15,2.36l-6.51,13.13a1.46,1.46,0,0,0,.58,1.91l7.06,4.08a1.41,1.41,0,0,0,.72.19,1.49,1.49,0,0,0,1.23-.64l8.11-12.21a2.72,2.72,0,0,1,2.08-1h.55a21.93,21.93,0,0,0,4.78-.55,1.53,1.53,0,0,1,.3,0,1.14,1.14,0,0,1,1.16,1.07l1.08,10.66c.05.53.36.84.77.84a1.11,1.11,0,0,0,.55-.16l11-6.34a3,3,0,0,0,1.31-2.05l1.1-12.21a4.1,4.1,0,0,1,1.14-2.28,66.84,66.84,0,0,0,6.1-6.45,2.12,2.12,0,0,1,1.59-.71,1.73,1.73,0,0,1,.56.09l7.05,2.46a1.43,1.43,0,0,0,.5.09,1.72,1.72,0,0,0,1.48-.82l8.07-14a1.72,1.72,0,0,0-.36-2.08l-5.65-4.88a2.11,2.11,0,0,1-.55-2.17,64.48,64.48,0,0,0,2.54-8.51A4.1,4.1,0,0,1,220,187l10-7.06a3,3,0,0,0,1.12-2.16V165.09c0-.57-.32-.92-.77-.92a1.28,1.28,0,0,0-.48.11l-9.77,4.4a1.19,1.19,0,0,1-.51.12,1.17,1.17,0,0,1-1.11-.87,21.88,21.88,0,0,0-2.18-4.84,2.71,2.71,0,0,1-.15-2.37l6.51-13.13a1.48,1.48,0,0,0-.57-1.91L215,141.6a1.41,1.41,0,0,0-.72-.19Zm-34.37,78.73c-6.09,0-10.27-4.85-10.27-13.23,0-11.83,8.31-26.2,18.55-32.12a16.85,16.85,0,0,1,8.28-2.53c6.08,0,10.26,4.85,10.26,13.24,0,11.82-8.3,26.2-18.54,32.11a16.81,16.81,0,0,1-8.28,2.53Z" transform-origin="188.22px 196.18px"/></g></g></g><g transform-origin="160.104px 302.945px"><path d="M188.25 295a5.84 5.84 0 0 1 1.56-3.17l6.39-5.83a3.91 3.91 0 0 0 1.08-3.15l-1.2-7a1.3 1.3 0 0 0-.62-1h0l-7.57-4.37h0a1.2 1.2 0 0 0-1.32.12l-2.75 1.81 2.65-7.18a1.56 1.56 0 0 0-.73-2h0l-7.58-4.38h0a1.69 1.69 0 0 0-.5-.2l-4.82-1.08a2.62 2.62 0 0 0-2.73 1.26l-4.52 8.63a4.56 4.56 0 0 1-1.8 1.67l-.21-.69a1.41 1.41 0 0 0-.61-.84h0l-7.6-4.38h0a1.22 1.22 0 0 0-1.42.19l-7.22 5.67a4.07 4.07 0 0 0-1.37 3.06l.43 6.87a5.41 5.41 0 0 1-1.12 3.32q-1.77 2.13-3.35 4.44a3.7 3.7 0 0 1-2.94 1.48l-4.64-.22a3 3 0 0 0-2.66 1.63l-4.36 9.78a1.86 1.86 0 0 0 .74 2.35h0l5.14 3a2.25 2.25 0 0 1 .12 1.33 46.08 46.08 0 0 0-.8 4.67 5.78 5.78 0 0 1-1.52 3.21l-6.4 5.88a3.87 3.87 0 0 0-1.07 3.15l1.2 7a1.32 1.32 0 0 0 .58.95h0l7.62 4.4h0a1.21 1.21 0 0 0 1.31-.13l2.75-1.81-2.66 7.18a1.61 1.61 0 0 0 .64 2h0l7.61 4.39h0a1.83 1.83 0 0 0 .53.24l4.82 1.07a2.6 2.6 0 0 0 2.72-1.26l4.53-8.63a4.56 4.56 0 0 1 1.8-1.67l.21.7a1.42 1.42 0 0 0 .62.84h0l7.53 4.35h0l.09.05h0a1.24 1.24 0 0 0 1.38-.22l7.22-5.67a4.07 4.07 0 0 0 1.37-3.06l-.43-6.87a5.41 5.41 0 0 1 1.12-3.32l3.35-4.43a3.71 3.71 0 0 1 2.94-1.49l4.64.23a3 3 0 0 0 2.66-1.64l4.36-9.78a1.85 1.85 0 0 0-1-2.47l-3.75-1.6a2.31 2.31 0 0 1-1.28-2.58 46.37 46.37 0 0 0 .84-4.8zm-38.51 21.22c-1.41-8.22 3.78-19.86 11.6-26a15.82 15.82 0 0 1 8.23-3.67 13.26 13.26 0 0 1 .9 3c1.41 8.21-3.78 19.85-11.6 26a15.8 15.8 0 0 1-8.2 3.66 12.09 12.09 0 0 1-.93-2.95z" class="C" transform-origin="160.104px 302.945px"/><g class="D"><path d="M188.25 295a5.84 5.84 0 0 1 1.56-3.17l6.39-5.83a3.91 3.91 0 0 0 1.08-3.15l-1.2-7a1.3 1.3 0 0 0-.62-1h0l-7.57-4.37h0a1.2 1.2 0 0 0-1.32.12l-2.75 1.81 2.65-7.18a1.56 1.56 0 0 0-.73-2h0l-7.58-4.38h0a1.69 1.69 0 0 0-.5-.2l-4.82-1.08a2.62 2.62 0 0 0-2.73 1.26l-4.52 8.63a4.56 4.56 0 0 1-1.8 1.67l-.21-.69a1.41 1.41 0 0 0-.61-.84h0l-7.6-4.38h0a1.22 1.22 0 0 0-1.42.19l-7.22 5.67a4.07 4.07 0 0 0-1.37 3.06l.43 6.87a5.41 5.41 0 0 1-1.12 3.32q-1.77 2.13-3.35 4.44a3.7 3.7 0 0 1-2.94 1.48l-4.64-.22a3 3 0 0 0-2.66 1.63l-4.36 9.78a1.86 1.86 0 0 0 .74 2.35h0l5.14 3a2.25 2.25 0 0 1 .12 1.33 46.08 46.08 0 0 0-.8 4.67 5.78 5.78 0 0 1-1.52 3.21l-6.4 5.88a3.87 3.87 0 0 0-1.07 3.15l1.2 7a1.32 1.32 0 0 0 .58.95h0l7.62 4.4h0a1.21 1.21 0 0 0 1.31-.13l2.75-1.81-2.66 7.18a1.61 1.61 0 0 0 .64 2h0l7.61 4.39h0a1.83 1.83 0 0 0 .53.24l4.82 1.07a2.6 2.6 0 0 0 2.72-1.26l4.53-8.63a4.56 4.56 0 0 1 1.8-1.67l.21.7a1.42 1.42 0 0 0 .62.84h0l7.53 4.35h0l.09.05h0a1.24 1.24 0 0 0 1.38-.22l7.22-5.67a4.07 4.07 0 0 0 1.37-3.06l-.43-6.87a5.41 5.41 0 0 1 1.12-3.32l3.35-4.43a3.71 3.71 0 0 1 2.94-1.49l4.64.23a3 3 0 0 0 2.66-1.64l4.36-9.78a1.85 1.85 0 0 0-1-2.47l-3.75-1.6a2.31 2.31 0 0 1-1.28-2.58 46.37 46.37 0 0 0 .84-4.8zm-38.51 21.22c-1.41-8.22 3.78-19.86 11.6-26a15.82 15.82 0 0 1 8.23-3.67 13.26 13.26 0 0 1 .9 3c1.41 8.21-3.78 19.85-11.6 26a15.8 15.8 0 0 1-8.2 3.66 12.09 12.09 0 0 1-.93-2.95z" class="I" transform-origin="160.104px 302.945px"/></g><g><path d="M142.58 331.58A1.84 1.84 0 0 0 140 331l-3.65 2.4-2.65 7.18a1.6 1.6 0 0 0 .64 1.95l7.52 4.33a1.58 1.58 0 0 1-.56-1.9l3.26-8.82a3.18 3.18 0 0 0-.75-3 13.49 13.49 0 0 1-1.23-1.56zm22.21 11a1.4 1.4 0 0 1-.61-.83l-1.62-5.41a1.65 1.65 0 0 0-2.28-1 20.49 20.49 0 0 1-3 1 3.91 3.91 0 0 0-.94.39l.21.7a1.38 1.38 0 0 0 .62.83h0z" class="H" transform-origin="149.188px 338.779px"/></g><g><path d="M166.46 320c-6.75 5.3-13.24 4.8-15.79-.73a15.66 15.66 0 0 0 8.19-3.65c7.82-6.15 13-17.78 11.61-26a12.15 12.15 0 0 0-.91-3c4.29-.37 7.61 2.21 8.51 7.39 1.41 8.2-3.79 19.83-11.61 25.99z" class="H" transform-origin="164.485px 305.147px"/></g><path d="M139.75,288a3.08,3.08,0,0,1-1.32.28l-4.65-.22a2.89,2.89,0,0,0-1.92.7l7.6,4.38a2.94,2.94,0,0,1,1.92-.7l4.64.22a3.07,3.07,0,0,0,1.33-.25Zm15.66-24.76a1.23,1.23,0,0,0-1.42.2l-7.22,5.67a4,4,0,0,0-1.19,1.89l7.59,4.38a3.93,3.93,0,0,1,1.2-1.89l7.21-5.66a1.21,1.21,0,0,1,1.43-.19v0Zm-25.09,50.78L124,319.87a3.71,3.71,0,0,0-1,1.82l7.59,4.36a3.65,3.65,0,0,1,1-1.8l6.32-5.79Zm47.88-55.14a1.36,1.36,0,0,0-.51-.2l-4.81-1.08a2.61,2.61,0,0,0-2.72,1.26l-4.53,8.63a4.12,4.12,0,0,1-1,1.16l7.6,4.38a3.93,3.93,0,0,0,1-1.16l4.53-8.63a2.6,2.6,0,0,1,2.73-1.26l4.81,1.08a3.12,3.12,0,0,1,.49.18Zm9.7,11.6v0a1.24,1.24,0,0,0-1.33.12l-2.74,1.81-.61,1.63a3.17,3.17,0,0,0,.76,3,12.42,12.42,0,0,1,1.24,1.52,3.68,3.68,0,0,0,.32.37,2.64,2.64,0,0,0,.29.21,1.74,1.74,0,0,0,.64.25,1.64,1.64,0,0,0,.85,0,1.18,1.18,0,0,0,.46-.21l6.39-4.2a2,2,0,0,1,.47-.22.92.92,0,0,1,.54,0,.75.75,0,0,1,.3.09Z" class="C" transform-origin="159.24px 291.804px"/><g class="D"><path d="M139.75,288a3.08,3.08,0,0,1-1.32.28l-4.65-.22a2.89,2.89,0,0,0-1.92.7l7.6,4.38a2.94,2.94,0,0,1,1.92-.7l4.64.22a3.07,3.07,0,0,0,1.33-.25Zm15.66-24.76a1.23,1.23,0,0,0-1.42.2l-7.22,5.67a4,4,0,0,0-1.19,1.89l7.59,4.38a3.93,3.93,0,0,1,1.2-1.89l7.21-5.66a1.21,1.21,0,0,1,1.43-.19v0Zm-25.09,50.78L124,319.87a3.71,3.71,0,0,0-1,1.82l7.59,4.36a3.65,3.65,0,0,1,1-1.8l6.32-5.79Zm47.88-55.14a1.36,1.36,0,0,0-.51-.2l-4.81-1.08a2.61,2.61,0,0,0-2.72,1.26l-4.53,8.63a4.12,4.12,0,0,1-1,1.16l7.6,4.38a3.93,3.93,0,0,0,1-1.16l4.53-8.63a2.6,2.6,0,0,1,2.73-1.26l4.81,1.08a3.12,3.12,0,0,1,.49.18Zm9.7,11.6v0a1.24,1.24,0,0,0-1.33.12l-2.74,1.81-.61,1.63a3.17,3.17,0,0,0,.76,3,12.42,12.42,0,0,1,1.24,1.52,3.68,3.68,0,0,0,.32.37,2.64,2.64,0,0,0,.29.21,1.74,1.74,0,0,0,.64.25,1.64,1.64,0,0,0,.85,0,1.18,1.18,0,0,0,.46-.21l6.39-4.2a2,2,0,0,1,.47-.22.92.92,0,0,1,.54,0,.75.75,0,0,1,.3.09Z" opacity=".7" transform-origin="159.24px 291.804px"/></g><path d="M197.28 282.84l-1.2-7a1.16 1.16 0 0 0-1.91-.83l-6.39 4.21a1.85 1.85 0 0 1-2.56-.58 13.35 13.35 0 0 0-1.24-1.53 3.12 3.12 0 0 1-.75-3l3.25-8.81a1.61 1.61 0 0 0-1.19-2.19l-4.81-1.11a2.62 2.62 0 0 0-2.73 1.27l-4.53 8.62a4.73 4.73 0 0 1-2.73 2.06 23.4 23.4 0 0 0-3 1 1.64 1.64 0 0 1-2.27-1l-1.63-5.4a1.21 1.21 0 0 0-2-.65l-7.21 5.68a4 4 0 0 0-1.38 3.02l.43 6.86a5.4 5.4 0 0 1-1.13 3.32q-1.77 2.13-3.35 4.44a3.74 3.74 0 0 1-2.93 1.49l-4.64-.23a3 3 0 0 0-2.66 1.63l-4.37 9.78a1.85 1.85 0 0 0 1 2.47l3.74 1.6a2.34 2.34 0 0 1 1.29 2.59 41.31 41.31 0 0 0-.8 4.66 5.86 5.86 0 0 1-1.57 3.17l-6.39 5.88a3.84 3.84 0 0 0-1.07 3.14l1.2 7a1.14 1.14 0 0 0 1.9.82L140 331a1.84 1.84 0 0 1 2.56.58 13.49 13.49 0 0 0 1.25 1.52 3.17 3.17 0 0 1 .75 3l-3.24 8.9a1.61 1.61 0 0 0 1.19 2.19l4.82 1.07a2.6 2.6 0 0 0 2.72-1.26l4.53-8.63a4.75 4.75 0 0 1 2.74-2.06 21.35 21.35 0 0 0 3-1 1.64 1.64 0 0 1 2.28 1l1.63 5.4a1.2 1.2 0 0 0 2 .64l7.22-5.67a4.07 4.07 0 0 0 1.37-3.06l-.43-6.87a5.41 5.41 0 0 1 1.12-3.32l3.35-4.43a3.71 3.71 0 0 1 2.94-1.49l4.64.23a3 3 0 0 0 2.66-1.64l4.36-9.78a1.85 1.85 0 0 0-1-2.47l-3.75-1.6a2.31 2.31 0 0 1-1.28-2.58 46.37 46.37 0 0 0 .8-4.66 5.84 5.84 0 0 1 1.56-3.17l6.41-5.84a3.91 3.91 0 0 0 1.08-3.16zM166.46 320c-7.82 6.15-15.3 4.48-16.72-3.74s3.78-19.85 11.6-26 15.31-4.47 16.72 3.74-3.78 19.85-11.6 26z" class="C" transform-origin="163.914px 305.131px"/><g class="D"><path d="M197.28 282.84l-1.2-7a1.16 1.16 0 0 0-1.91-.83l-6.39 4.21a1.85 1.85 0 0 1-2.56-.58 13.35 13.35 0 0 0-1.24-1.53 3.12 3.12 0 0 1-.75-3l3.25-8.81a1.61 1.61 0 0 0-1.19-2.19l-4.81-1.11a2.62 2.62 0 0 0-2.73 1.27l-4.53 8.62a4.73 4.73 0 0 1-2.73 2.06 23.4 23.4 0 0 0-3 1 1.64 1.64 0 0 1-2.27-1l-1.63-5.4a1.21 1.21 0 0 0-2-.65l-7.21 5.68a4 4 0 0 0-1.38 3.02l.43 6.86a5.4 5.4 0 0 1-1.13 3.32q-1.77 2.13-3.35 4.44a3.74 3.74 0 0 1-2.93 1.49l-4.64-.23a3 3 0 0 0-2.66 1.63l-4.37 9.78a1.85 1.85 0 0 0 1 2.47l3.74 1.6a2.34 2.34 0 0 1 1.29 2.59 41.31 41.31 0 0 0-.8 4.66 5.86 5.86 0 0 1-1.57 3.17l-6.39 5.88a3.84 3.84 0 0 0-1.07 3.14l1.2 7a1.14 1.14 0 0 0 1.9.82L140 331a1.84 1.84 0 0 1 2.56.58 13.49 13.49 0 0 0 1.25 1.52 3.17 3.17 0 0 1 .75 3l-3.24 8.9a1.61 1.61 0 0 0 1.19 2.19l4.82 1.07a2.6 2.6 0 0 0 2.72-1.26l4.53-8.63a4.75 4.75 0 0 1 2.74-2.06 21.35 21.35 0 0 0 3-1 1.64 1.64 0 0 1 2.28 1l1.63 5.4a1.2 1.2 0 0 0 2 .64l7.22-5.67a4.07 4.07 0 0 0 1.37-3.06l-.43-6.87a5.41 5.41 0 0 1 1.12-3.32l3.35-4.43a3.71 3.71 0 0 1 2.94-1.49l4.64.23a3 3 0 0 0 2.66-1.64l4.36-9.78a1.85 1.85 0 0 0-1-2.47l-3.75-1.6a2.31 2.31 0 0 1-1.28-2.58 46.37 46.37 0 0 0 .8-4.66 5.84 5.84 0 0 1 1.56-3.17l6.41-5.84a3.91 3.91 0 0 0 1.08-3.16zM166.46 320c-7.82 6.15-15.3 4.48-16.72-3.74s3.78-19.85 11.6-26 15.31-4.47 16.72 3.74-3.78 19.85-11.6 26z" class="L" transform-origin="163.914px 305.131px"/></g><g class="D"><g class="L" transform-origin="163.903px 305.132px"><path d="M180 262.9h.27l4.81 1.08a.7.7 0 0 1 .5.35.72.72 0 0 1 0 .61l-3.26 8.81a4.11 4.11 0 0 0 1 4 13.39 13.39 0 0 1 1.16 1.41 2.9 2.9 0 0 0 2.35 1.27 2.66 2.66 0 0 0 1.49-.45l6.38-4.2a.63.63 0 0 1 .3-.12c.1 0 .16.21.18.33l1.2 7a3 3 0 0 1-.79 2.31l-6.39 5.87a6.76 6.76 0 0 0-1.86 3.75 40.68 40.68 0 0 1-.78 4.56 3.27 3.27 0 0 0 1.83 3.65l3.74 1.6a.91.91 0 0 1 .51.51 1 1 0 0 1 0 .73l-4.36 9.77a2.09 2.09 0 0 1-1.71 1.09h-.06l-4.64-.23h-.16a4.66 4.66 0 0 0-3.59 1.9c-1 1.53-2.15 3-3.29 4.36a6.35 6.35 0 0 0-1.34 4l.43 6.87a3.14 3.14 0 0 1-1 2.27l-7.21 5.67a.64.64 0 0 1-.32.15c-.15 0-.24-.28-.25-.33l-1.63-5.4a2.52 2.52 0 0 0-2.45-1.85 2.87 2.87 0 0 0-1.07.21 20.51 20.51 0 0 1-2.84.94 5.69 5.69 0 0 0-3.33 2.53l-4.53 8.63a1.71 1.71 0 0 1-1.44.81 1.09 1.09 0 0 1-.26 0l-4.82-1.07a.77.77 0 0 1-.5-.35.76.76 0 0 1 0-.61l3.26-8.81a4.09 4.09 0 0 0-.95-4 11.49 11.49 0 0 1-1.15-1.42 2.93 2.93 0 0 0-2.36-1.27 2.73 2.73 0 0 0-1.48.45l-6.39 4.2a.6.6 0 0 1-.3.12c-.12 0-.17-.31-.18-.32l-1.2-7a3 3 0 0 1 .79-2.31l6.39-5.88a6.73 6.73 0 0 0 1.86-3.75 41.15 41.15 0 0 1 .79-4.56 3.26 3.26 0 0 0-1.83-3.64l-3.75-1.6a.91.91 0 0 1-.5-.52.9.9 0 0 1 0-.72l4.37-9.78a2.05 2.05 0 0 1 1.7-1.08h.06l4.64.23h.16a4.66 4.66 0 0 0 3.59-1.9c1-1.52 2.15-3 3.3-4.36a6.31 6.31 0 0 0 1.33-4l-.43-6.86a3.16 3.16 0 0 1 1-2.27l7.22-5.67a.51.51 0 0 1 .32-.15c.14 0 .23.27.25.33l1.62 5.4a2.53 2.53 0 0 0 2.46 1.84 2.82 2.82 0 0 0 1.06-.21 23.71 23.71 0 0 1 2.85-.94 5.68 5.68 0 0 0 3.33-2.52l4.52-8.63a1.72 1.72 0 0 1 1.44-.82h0m-22.53 61.73c3 0 6.31-1.35 9.56-3.9 8.05-6.33 13.4-18.4 11.94-26.9-.89-5.14-4.12-8.22-8.65-8.22-3 0-6.31 1.36-9.56 3.91-8.05 6.33-13.41 18.39-11.94 26.89.88 5.15 4.12 8.22 8.65 8.22M180 262a2.63 2.63 0 0 0-2.26 1.32l-4.53 8.62a4.73 4.73 0 0 1-2.73 2.06 23.4 23.4 0 0 0-3 1 1.83 1.83 0 0 1-.71.14 1.59 1.59 0 0 1-1.56-1.18l-1.63-5.4a1.24 1.24 0 0 0-1.14-1 1.49 1.49 0 0 0-.9.34l-7.21 5.68a4 4 0 0 0-1.33 3.02l.43 6.86a5.4 5.4 0 0 1-1.13 3.32q-1.77 2.13-3.35 4.44a3.75 3.75 0 0 1-2.82 1.49H146l-4.64-.23h-.11a3 3 0 0 0-2.55 1.63l-4.37 9.78a1.85 1.85 0 0 0 1 2.47l3.74 1.6a2.34 2.34 0 0 1 1.29 2.59 41.31 41.31 0 0 0-.8 4.66 5.86 5.86 0 0 1-1.57 3.17l-6.39 5.88a3.84 3.84 0 0 0-1.07 3.14l1.2 7a1.14 1.14 0 0 0 1.09 1.09 1.45 1.45 0 0 0 .81-.27L140 331a1.78 1.78 0 0 1 1-.3 2 2 0 0 1 1.59.88 13.49 13.49 0 0 0 1.25 1.52 3.17 3.17 0 0 1 .75 3l-3.27 8.9a1.61 1.61 0 0 0 1.19 2.19l4.82 1.07a1.8 1.8 0 0 0 .46 0 2.61 2.61 0 0 0 2.26-1.31l4.53-8.63a4.75 4.75 0 0 1 2.74-2.06 21.35 21.35 0 0 0 3-1 2.09 2.09 0 0 1 .72-.14 1.6 1.6 0 0 1 1.56 1.19l1.63 5.4a1.22 1.22 0 0 0 1.14 1 1.46 1.46 0 0 0 .89-.35l7.22-5.67a4.07 4.07 0 0 0 1.37-3.06l-.43-6.87a5.41 5.41 0 0 1 1.12-3.32c1.18-1.41 2.3-2.9 3.35-4.43a3.74 3.74 0 0 1 2.82-1.49h.12l4.64.23h.1a3 3 0 0 0 2.56-1.64l4.36-9.78a1.85 1.85 0 0 0-1-2.47l-3.75-1.6a2.31 2.31 0 0 1-1.28-2.58 46.37 46.37 0 0 0 .8-4.66 5.84 5.84 0 0 1 1.56-3.17l6.38-5.85a3.91 3.91 0 0 0 1.08-3.15l-1.2-7a1.16 1.16 0 0 0-1.1-1.1 1.53 1.53 0 0 0-.81.27l-6.39 4.21a1.74 1.74 0 0 1-1 .29 2 2 0 0 1-1.59-.87 13.35 13.35 0 0 0-1.24-1.53 3.12 3.12 0 0 1-.75-3l3.25-8.81a1.61 1.61 0 0 0-1.19-2.19l-4.78-1.12a2.42 2.42 0 0 0-.47 0zm-22.52 61.7c-3.92 0-6.9-2.57-7.74-7.45-1.41-8.21 3.78-19.85 11.6-26 3.18-2.5 6.31-3.7 9-3.7 3.91 0 6.89 2.57 7.73 7.44 1.42 8.21-3.78 19.86-11.6 26-3.18 2.5-6.3 3.71-9 3.71z" transform-origin="163.903px 305.132px"/></g></g></g><g transform-origin="229.582px 253.036px"><path d="M252.29 246.63a4.77 4.77 0 0 1 1.26-2.57l5.18-4.75a3.11 3.11 0 0 0 .86-2.55l-1-5.64a1.06 1.06 0 0 0-.49-.78h0l-6.1-3.54h0a1 1 0 0 0-1.07.1l-2.22 1.46 2.14-5.8a1.27 1.27 0 0 0-.59-1.61h0l-6.13-3.54h0a1.29 1.29 0 0 0-.4-.16l-3.9-.87a2.09 2.09 0 0 0-2.2 1l-3.67 7a3.59 3.59 0 0 1-1.45 1.35l-.17-.56a1.2 1.2 0 0 0-.49-.68h0l-6.15-3.55h0a1 1 0 0 0-1.15.15l-5.84 4.59a3.25 3.25 0 0 0-1.1 2.48l.34 5.55a4.38 4.38 0 0 1-.9 2.69 43.1 43.1 0 0 0-2.71 3.58 3 3 0 0 1-2.34 1.22l-3.75-.19a2.4 2.4 0 0 0-2.15 1.33l-3.53 7.9a1.49 1.49 0 0 0 .6 1.9h0l4.16 2.4a1.79 1.79 0 0 1 .09 1.07 37.32 37.32 0 0 0-.64 3.78 4.76 4.76 0 0 1-1.28 2.61l-5.17 4.75a3.17 3.17 0 0 0-.87 2.55l1 5.64a1.08 1.08 0 0 0 .47.76h0l6.17 3.56h0a1 1 0 0 0 1.06-.11l2.22-1.46-2.15 5.8a1.3 1.3 0 0 0 .52 1.59h0l6.16 3.56h0a1.4 1.4 0 0 0 .43.19l3.89.87a2.1 2.1 0 0 0 2.21-1l3.66-7a3.76 3.76 0 0 1 1.46-1.35l.17.56a1.11 1.11 0 0 0 .5.68h0l6.1 3.51h0 .07 0a1 1 0 0 0 1.12-.17l5.83-4.59a3.26 3.26 0 0 0 1.11-2.48l-.35-5.55a4.45 4.45 0 0 1 .91-2.69c1-1.14 1.86-2.34 2.71-3.58a3 3 0 0 1 2.37-1.21l3.76.19a2.41 2.41 0 0 0 2.15-1.32l3.53-7.91a1.51 1.51 0 0 0-.79-2l-3-1.29a1.88 1.88 0 0 1-1-2.09 34.61 34.61 0 0 0 .54-3.78zm-31.14 17.16c-1.15-6.65 3-16.06 9.38-21a12.67 12.67 0 0 1 6.65-3 10 10 0 0 1 .73 2.44c1.14 6.65-3.06 16.06-9.38 21a12.84 12.84 0 0 1-6.63 3 9.84 9.84 0 0 1-.75-2.44z" class="C" transform-origin="229.527px 253.04px"/><g class="D"><path d="M252.29 246.63a4.77 4.77 0 0 1 1.26-2.57l5.18-4.75a3.11 3.11 0 0 0 .86-2.55l-1-5.64a1.06 1.06 0 0 0-.49-.78h0l-6.1-3.54h0a1 1 0 0 0-1.07.1l-2.22 1.46 2.14-5.8a1.27 1.27 0 0 0-.59-1.61h0l-6.13-3.54h0a1.29 1.29 0 0 0-.4-.16l-3.9-.87a2.09 2.09 0 0 0-2.2 1l-3.67 7a3.59 3.59 0 0 1-1.45 1.35l-.17-.56a1.2 1.2 0 0 0-.49-.68h0l-6.15-3.55h0a1 1 0 0 0-1.15.15l-5.84 4.59a3.25 3.25 0 0 0-1.1 2.48l.34 5.55a4.38 4.38 0 0 1-.9 2.69 43.1 43.1 0 0 0-2.71 3.58 3 3 0 0 1-2.34 1.22l-3.75-.19a2.4 2.4 0 0 0-2.15 1.33l-3.53 7.9a1.49 1.49 0 0 0 .6 1.9h0l4.16 2.4a1.79 1.79 0 0 1 .09 1.07 37.32 37.32 0 0 0-.64 3.78 4.76 4.76 0 0 1-1.28 2.61l-5.17 4.75a3.17 3.17 0 0 0-.87 2.55l1 5.64a1.08 1.08 0 0 0 .47.76h0l6.17 3.56h0a1 1 0 0 0 1.06-.11l2.22-1.46-2.15 5.8a1.3 1.3 0 0 0 .52 1.59h0l6.16 3.56h0a1.4 1.4 0 0 0 .43.19l3.89.87a2.1 2.1 0 0 0 2.21-1l3.66-7a3.76 3.76 0 0 1 1.46-1.35l.17.56a1.11 1.11 0 0 0 .5.68h0l6.1 3.51h0 .07 0a1 1 0 0 0 1.12-.17l5.83-4.59a3.26 3.26 0 0 0 1.11-2.48l-.35-5.55a4.45 4.45 0 0 1 .91-2.69c1-1.14 1.86-2.34 2.71-3.58a3 3 0 0 1 2.37-1.21l3.76.19a2.41 2.41 0 0 0 2.15-1.32l3.53-7.91a1.51 1.51 0 0 0-.79-2l-3-1.29a1.88 1.88 0 0 1-1-2.09 34.61 34.61 0 0 0 .54-3.78zm-31.14 17.16c-1.15-6.65 3-16.06 9.38-21a12.67 12.67 0 0 1 6.65-3 10 10 0 0 1 .73 2.44c1.14 6.65-3.06 16.06-9.38 21a12.84 12.84 0 0 1-6.63 3 9.84 9.84 0 0 1-.75-2.44z" class="I" transform-origin="229.527px 253.04px"/></g><g><path d="M215.36 276.18a1.49 1.49 0 0 0-2.08-.47l-2.95 1.94-2.14 5.81a1.29 1.29 0 0 0 .52 1.58l6.08 3.5a1.29 1.29 0 0 1-.46-1.54l2.64-7.13a2.59 2.59 0 0 0-.6-2.46 9.46 9.46 0 0 1-1.01-1.23zm18 8.89a1.07 1.07 0 0 1-.49-.67l-1.36-4.4a1.33 1.33 0 0 0-1.84-.85 16.88 16.88 0 0 1-2.4.8 3.38 3.38 0 0 0-.76.31l.17.57a1.16 1.16 0 0 0 .51.67h0z" class="H" transform-origin="220.728px 282.005px"/></g><g><path d="M234.67 266.81c-5.46 4.29-10.71 3.88-12.77-.59a12.76 12.76 0 0 0 6.63-3c6.32-5 10.53-14.39 9.38-21a9.83 9.83 0 0 0-.73-2.43c3.47-.3 6.15 1.78 6.87 6 1.15 6.63-3.05 16.04-9.38 21.02z" class="H" transform-origin="233.07px 254.786px"/></g><path d="M213.07 241a2.68 2.68 0 0 1-1.07.23l-3.76-.19a2.41 2.41 0 0 0-1.56.57l6.15 3.54a2.35 2.35 0 0 1 1.55-.56l3.76.18a2.46 2.46 0 0 0 1.07-.21zm12.66-20a1 1 0 0 0-1.14.16l-5.85 4.59a3.24 3.24 0 0 0-1 1.53l6.14 3.54a3.11 3.11 0 0 1 1-1.53l5.83-4.58a1 1 0 0 1 1.15-.15h0zm-20.29 41l-5.11 4.7a3 3 0 0 0-.79 1.47l6.13 3.53a3 3 0 0 1 .81-1.46l5.11-4.68zm38.72-44.6a1.06 1.06 0 0 0-.41-.15l-3.89-.88a2.11 2.11 0 0 0-2.2 1l-3.67 7a3.29 3.29 0 0 1-.83.94l6.15 3.54a3.16 3.16 0 0 0 .83-.94l3.66-7a2.13 2.13 0 0 1 2.21-1l3.89.88a1.72 1.72 0 0 1 .4.14zm7.84 9.4h0a1 1 0 0 0-1.08.1l-2.21 1.47-.5 1.31a2.58 2.58 0 0 0 .62 2.47 10.29 10.29 0 0 1 1 1.23 3.73 3.73 0 0 0 .26.3l.23.17a1.53 1.53 0 0 0 1.21.17 1.22 1.22 0 0 0 .37-.17l5.17-3.4a1.85 1.85 0 0 1 .38-.18.74.74 0 0 1 .44 0 .67.67 0 0 1 .24.07z" class="C" transform-origin="228.835px 244.017px"/><g class="D"><path d="M213.07 241a2.68 2.68 0 0 1-1.07.23l-3.76-.19a2.41 2.41 0 0 0-1.56.57l6.15 3.54a2.35 2.35 0 0 1 1.55-.56l3.76.18a2.46 2.46 0 0 0 1.07-.21zm12.66-20a1 1 0 0 0-1.14.16l-5.85 4.59a3.24 3.24 0 0 0-1 1.53l6.14 3.54a3.11 3.11 0 0 1 1-1.53l5.83-4.58a1 1 0 0 1 1.15-.15h0zm-20.29 41l-5.11 4.7a3 3 0 0 0-.79 1.47l6.13 3.53a3 3 0 0 1 .81-1.46l5.11-4.68zm38.72-44.6a1.06 1.06 0 0 0-.41-.15l-3.89-.88a2.11 2.11 0 0 0-2.2 1l-3.67 7a3.29 3.29 0 0 1-.83.94l6.15 3.54a3.16 3.16 0 0 0 .83-.94l3.66-7a2.13 2.13 0 0 1 2.21-1l3.89.88a1.72 1.72 0 0 1 .4.14zm7.84 9.4h0a1 1 0 0 0-1.08.1l-2.21 1.47-.5 1.31a2.58 2.58 0 0 0 .62 2.47 10.29 10.29 0 0 1 1 1.23 3.73 3.73 0 0 0 .26.3l.23.17a1.53 1.53 0 0 0 1.21.17 1.22 1.22 0 0 0 .37-.17l5.17-3.4a1.85 1.85 0 0 1 .38-.18.74.74 0 0 1 .44 0 .67.67 0 0 1 .24.07z" opacity=".7" transform-origin="228.835px 244.017px"/></g><path d="M259.59 236.76l-1-5.64a.93.93 0 0 0-1.54-.66l-5.16 3.4a1.51 1.51 0 0 1-2.08-.47 10.29 10.29 0 0 0-1-1.24 2.57 2.57 0 0 1-.6-2.46l2.63-7.12a1.29 1.29 0 0 0-1-1.77l-3.89-.88a2.12 2.12 0 0 0-2.21 1l-3.66 7a3.87 3.87 0 0 1-2.21 1.67 18.17 18.17 0 0 0-2.4.79 1.32 1.32 0 0 1-1.84-.84l-1.32-4.37a1 1 0 0 0-1.65-.52l-5.83 4.59a3.25 3.25 0 0 0-1.11 2.47l.35 5.55a4.43 4.43 0 0 1-.91 2.69 43.8 43.8 0 0 0-2.71 3.59 3 3 0 0 1-2.38 1.2l-3.75-.18a2.39 2.39 0 0 0-2.15 1.32l-3.53 7.91a1.51 1.51 0 0 0 .79 2l3 1.29a1.87 1.87 0 0 1 1 2.09 34.2 34.2 0 0 0-.65 3.77 4.69 4.69 0 0 1-1.27 2.56l-5.17 4.76a3.1 3.1 0 0 0-.86 2.54l1 5.64a.93.93 0 0 0 1.54.67l5.16-3.4a1.51 1.51 0 0 1 2.08.47 11.15 11.15 0 0 0 1 1.23 2.56 2.56 0 0 1 .61 2.46l-2.53 7.13a1.29 1.29 0 0 0 1 1.77l3.89.87a2.1 2.1 0 0 0 2.21-1l3.66-7a3.82 3.82 0 0 1 2.21-1.66 18.17 18.17 0 0 0 2.4-.79 1.32 1.32 0 0 1 1.84.84l1.32 4.37a1 1 0 0 0 1.65.52l5.83-4.59a3.26 3.26 0 0 0 1.11-2.48l-.35-5.55a4.45 4.45 0 0 1 .91-2.69c1-1.14 1.86-2.34 2.71-3.58a3 3 0 0 1 2.37-1.21l3.76.19a2.41 2.41 0 0 0 2.15-1.32l3.53-7.91a1.51 1.51 0 0 0-.79-2l-3-1.29a1.88 1.88 0 0 1-1-2.09 34.61 34.61 0 0 0 .65-3.77 4.77 4.77 0 0 1 1.26-2.57l5.18-4.75a3.11 3.11 0 0 0 .75-2.55zm-24.92 30.05c-6.32 5-12.38 3.62-13.52-3s3-16.06 9.38-21 12.38-3.62 13.52 3-3.05 16.03-9.38 21z" class="C" transform-origin="232.542px 254.781px"/><g class="D"><path d="M259.59 236.76l-1-5.64a.93.93 0 0 0-1.54-.66l-5.16 3.4a1.51 1.51 0 0 1-2.08-.47 10.29 10.29 0 0 0-1-1.24 2.57 2.57 0 0 1-.6-2.46l2.63-7.12a1.29 1.29 0 0 0-1-1.77l-3.89-.88a2.12 2.12 0 0 0-2.21 1l-3.66 7a3.87 3.87 0 0 1-2.21 1.67 18.17 18.17 0 0 0-2.4.79 1.32 1.32 0 0 1-1.84-.84l-1.32-4.37a1 1 0 0 0-1.65-.52l-5.83 4.59a3.25 3.25 0 0 0-1.11 2.47l.35 5.55a4.43 4.43 0 0 1-.91 2.69 43.8 43.8 0 0 0-2.71 3.59 3 3 0 0 1-2.38 1.2l-3.75-.18a2.39 2.39 0 0 0-2.15 1.32l-3.53 7.91a1.51 1.51 0 0 0 .79 2l3 1.29a1.87 1.87 0 0 1 1 2.09 34.2 34.2 0 0 0-.65 3.77 4.69 4.69 0 0 1-1.27 2.56l-5.17 4.76a3.1 3.1 0 0 0-.86 2.54l1 5.64a.93.93 0 0 0 1.54.67l5.16-3.4a1.51 1.51 0 0 1 2.08.47 11.15 11.15 0 0 0 1 1.23 2.56 2.56 0 0 1 .61 2.46l-2.53 7.13a1.29 1.29 0 0 0 1 1.77l3.89.87a2.1 2.1 0 0 0 2.21-1l3.66-7a3.82 3.82 0 0 1 2.21-1.66 18.17 18.17 0 0 0 2.4-.79 1.32 1.32 0 0 1 1.84.84l1.32 4.37a1 1 0 0 0 1.65.52l5.83-4.59a3.26 3.26 0 0 0 1.11-2.48l-.35-5.55a4.45 4.45 0 0 1 .91-2.69c1-1.14 1.86-2.34 2.71-3.58a3 3 0 0 1 2.37-1.21l3.76.19a2.41 2.41 0 0 0 2.15-1.32l3.53-7.91a1.51 1.51 0 0 0-.79-2l-3-1.29a1.88 1.88 0 0 1-1-2.09 34.61 34.61 0 0 0 .65-3.77 4.77 4.77 0 0 1 1.26-2.57l5.18-4.75a3.11 3.11 0 0 0 .75-2.55zm-24.92 30.05c-6.32 5-12.38 3.62-13.52-3s3-16.06 9.38-21 12.38-3.62 13.52 3-3.05 16.03-9.38 21z" class="L" transform-origin="232.542px 254.781px"/></g><g class="D"><g class="L" transform-origin="232.62px 254.756px"><path d="M245.63 220.81h0 .17l3.9.87a.44.44 0 0 1 .29.2.4.4 0 0 1 0 .34l-2.63 7.13a3.5 3.5 0 0 0 .8 3.43 9.14 9.14 0 0 1 .92 1.12 2.53 2.53 0 0 0 2 1.11 2.34 2.34 0 0 0 1.3-.4l5.16-3.4h.09a.3.3 0 0 1 0 .1l1 5.64a2.25 2.25 0 0 1-.58 1.7l-5.18 4.76a5.61 5.61 0 0 0-1.55 3.14 33.67 33.67 0 0 1-.64 3.67 2.82 2.82 0 0 0 1.59 3.15l3 1.29a.64.64 0 0 1 .31.32.58.58 0 0 1 0 .45l-3.53 7.91a1.52 1.52 0 0 1-1.26.77h0l-3.75-.18H247a4 4 0 0 0-3.05 1.61c-.83 1.23-1.73 2.41-2.65 3.52a5.33 5.33 0 0 0-1.13 3.34l.35 5.55a2.35 2.35 0 0 1-.75 1.69l-5.84 4.59c-.06.05-.11.06-.12.08a.69.69 0 0 1-.06-.14l-1.32-4.37a2.2 2.2 0 0 0-2.15-1.62 2.52 2.52 0 0 0-.93.18 17.41 17.41 0 0 1-2.28.76 4.69 4.69 0 0 0-2.8 2.13l-3.66 7a1.23 1.23 0 0 1-1 .56.47.47 0 0 1-.17 0l-3.9-.87a.43.43 0 0 1-.29-.19.43.43 0 0 1 0-.35l2.63-7.12a3.5 3.5 0 0 0-.8-3.43 9.14 9.14 0 0 1-.92-1.12 2.5 2.5 0 0 0-2.05-1.11 2.41 2.41 0 0 0-1.3.39l-5.16 3.4-.09.05a.46.46 0 0 1 0-.09l-1-5.64a2.28 2.28 0 0 1 .58-1.71l5.17-4.75a5.56 5.56 0 0 0 1.56-3.14 35.7 35.7 0 0 1 .63-3.67 2.82 2.82 0 0 0-1.58-3.16l-3-1.29a.57.57 0 0 1-.31-.32.56.56 0 0 1 0-.44l3.53-7.91a1.5 1.5 0 0 1 1.26-.77h0l3.75.18h.14a3.94 3.94 0 0 0 3.05-1.61l2.65-3.51a5.35 5.35 0 0 0 1.13-3.34l-.35-5.56a2.34 2.34 0 0 1 .75-1.68l5.84-4.59.12-.08a.49.49 0 0 1 .06.14l1.32 4.37a2.21 2.21 0 0 0 2.15 1.62 2.58 2.58 0 0 0 .93-.19 17.34 17.34 0 0 1 2.28-.75 4.77 4.77 0 0 0 2.8-2.13l3.66-7a1.22 1.22 0 0 1 1-.57m-18.28 49.87a13.11 13.11 0 0 0 7.85-3.2c6.55-5.15 10.91-15 9.72-21.92-.73-4.25-3.42-6.79-7.17-6.79A13.1 13.1 0 0 0 230 242c-6.55 5.16-10.91 15-9.72 21.92.73 4.26 3.41 6.8 7.17 6.8m18.23-50.86a2.13 2.13 0 0 0-1.88 1.14l-3.66 7a3.87 3.87 0 0 1-2.21 1.67 18.17 18.17 0 0 0-2.4.79 1.54 1.54 0 0 1-.58.12 1.29 1.29 0 0 1-1.26-1l-1.32-4.37a1 1 0 0 0-.92-.8 1.18 1.18 0 0 0-.73.28l-5.83 4.59a3.25 3.25 0 0 0-1.11 2.47l.35 5.55a4.43 4.43 0 0 1-.91 2.69 43.8 43.8 0 0 0-2.71 3.59 3 3 0 0 1-2.28 1.2h-.1l-3.75-.18h-.08a2.41 2.41 0 0 0-2.07 1.33l-3.53 7.91a1.51 1.51 0 0 0 .79 2l3 1.29a1.87 1.87 0 0 1 1 2.09 34.2 34.2 0 0 0-.65 3.77 4.69 4.69 0 0 1-1.27 2.56l-5.17 4.76a3.1 3.1 0 0 0-.86 2.54l1 5.64a.92.92 0 0 0 .88.89 1.21 1.21 0 0 0 .66-.22l5.16-3.4a1.46 1.46 0 0 1 .79-.24 1.61 1.61 0 0 1 1.29.71 11.15 11.15 0 0 0 1 1.23 2.56 2.56 0 0 1 .61 2.46l-2.59 7.08a1.29 1.29 0 0 0 1 1.77l3.89.87a1.64 1.64 0 0 0 .38 0 2.12 2.12 0 0 0 1.83-1.06l3.66-7a3.82 3.82 0 0 1 2.21-1.66 18.17 18.17 0 0 0 2.4-.79 1.54 1.54 0 0 1 .58-.12 1.29 1.29 0 0 1 1.26 1l1.32 4.37a1 1 0 0 0 .92.8 1.18 1.18 0 0 0 .73-.28l5.83-4.59a3.26 3.26 0 0 0 1.11-2.48l-.35-5.55a4.45 4.45 0 0 1 .91-2.69c1-1.14 1.86-2.34 2.71-3.58a3 3 0 0 1 2.28-1.21h.09l3.76.19h.08a2.43 2.43 0 0 0 2.07-1.32l3.53-7.91a1.51 1.51 0 0 0-.79-2l-3-1.29a1.88 1.88 0 0 1-1-2.09 34.61 34.61 0 0 0 .65-3.77 4.77 4.77 0 0 1 1.26-2.57l5.18-4.75a3.11 3.11 0 0 0 .86-2.55l-1-5.64a.93.93 0 0 0-.88-.88 1.21 1.21 0 0 0-.66.22l-5.16 3.4a1.46 1.46 0 0 1-.79.24 1.61 1.61 0 0 1-1.29-.71 10.29 10.29 0 0 0-1-1.24 2.57 2.57 0 0 1-.6-2.46l2.63-7.12a1.29 1.29 0 0 0-1-1.77l-3.89-.88a2.45 2.45 0 0 0-.38 0zm-18.28 49.95c-3.17 0-5.57-2.08-6.25-6-1.15-6.65 3-16.06 9.38-21a12.15 12.15 0 0 1 7.27-3c3.16 0 5.57 2.08 6.25 6 1.15 6.64-3.05 16.06-9.38 21a12.21 12.21 0 0 1-7.27 3z" transform-origin="232.62px 254.756px"/></g></g></g></g><g id="I" class="B" transform-origin="217.11px 242.88px"><g transform-origin="217.11px 242.88px"><g transform-origin="217.11px 242.88px"><g class="C"><path d="M156.63 419.08a2.81 2.81 0 0 1-2.3-1.08 5.15 5.15 0 0 1-.93-3.25V144.37a14.73 14.73 0 0 1 4.6-9.85l.19-.17a5.22 5.22 0 0 1 .43-.39 10.45 10.45 0 0 1 1.31-.89l32.31-18.66 2.1-1.22a1.52 1.52 0 0 1 .66-.19c.58 0 .64.69.64 1a1.77 1.77 0 0 0 1.72 2h0a2.71 2.71 0 0 0 1.32-.4l37.68-21.8a5.34 5.34 0 0 0 2.52-4.18 4.24 4.24 0 0 1 1.66-3.1l.18-.11 31.61-18.24.68-.4a7.25 7.25 0 0 1 3.56-1.09c2.62 0 4.25 2.14 4.25 5.6v268.28a14.44 14.44 0 0 1-6.53 11.32l-114.88 66.33a5.69 5.69 0 0 1-2.78.87z" opacity=".6" transform-origin="217.106px 242.881px"/></g><g class="D"><path d="M250.42,80.81l-9.7,5.6-.18.11a4.24,4.24,0,0,0-1.66,3.1,5.34,5.34,0,0,1-2.52,4.18l-25.73,14.85L153.4,209.06v42Z" class="I" transform-origin="201.91px 165.935px"/></g><g class="D"><path d="M280.82,157.34,153.4,380.87v33.88a5.15,5.15,0,0,0,.93,3.25,2.77,2.77,0,0,0,1.31.91L280.82,199.3Z" class="I" transform-origin="217.106px 288.125px"/></g><g class="D"><path d="M153.4 185.51L194.72 113a1.72 1.72 0 0 0-.38.16l-2.1 1.22-13 7.5-25.84 45.37z" class="I" transform-origin="174.06px 149.255px"/></g><g class="D"><path d="M280.82,125.12V72.28c0-3.46-1.63-5.6-4.25-5.6A7.25,7.25,0,0,0,273,67.77l-.68.4L269.13,70,153.4,273v75.61Z" class="I" transform-origin="217.11px 207.645px"/></g><g class="D"><path class="I" d="M280.82 319.44v-41.96l-60.01 105.28 35.65-20.58 24.36-42.74z" transform-origin="250.815px 330.12px"/></g><g class="D"><path class="I" d="M280.82 248.33v-18.26l-100.3 175.95 15.52-8.96 84.78-148.73z" transform-origin="230.67px 318.045px"/></g><path d="M276.57 67.19h0c2.34 0 3.73 1.91 3.73 5.09v268.28a14.06 14.06 0 0 1-6.3 10.87l-114.86 66.33a5.16 5.16 0 0 1-2.51.8c-1.7 0-2.71-1.42-2.71-3.81V144.37a14.15 14.15 0 0 1 4.42-9.46l.21-.19.38-.35a11.21 11.21 0 0 1 1.25-.86l32.32-18.66 2.11-1.21a.93.93 0 0 1 .44-.15s.11.15.11.47a2.27 2.27 0 0 0 2.23 2.5A3.12 3.12 0 0 0 199 116l37.67-21.74a5.9 5.9 0 0 0 2.76-4.63 3.75 3.75 0 0 1 1.46-2.68l.13-.08 31.58-18.26.67-.39a6.8 6.8 0 0 1 3.3-1m0-1a7.76 7.76 0 0 0-3.82 1.16l-.68.4L240.46 86l-.21.13a4.78 4.78 0 0 0-1.89 3.53 4.86 4.86 0 0 1-2.25 3.73l-37.66 21.74a2.22 2.22 0 0 1-1.06.33c-.71 0-1.2-.54-1.2-1.46s-.47-1.51-1.16-1.51a2 2 0 0 0-.94.29L192 114l-32.31 18.66a11.21 11.21 0 0 0-1.38.94l-.65.58a15.19 15.19 0 0 0-4.76 10.23v270.34c0 3.07 1.52 4.85 3.75 4.85a6.14 6.14 0 0 0 3-.94l114.88-66.33a15 15 0 0 0 6.79-11.77V72.28c0-3.87-1.95-6.12-4.77-6.12z" class="G" transform-origin="217.11px 242.88px"/></g></g></g><g id="J" class="B C" transform-origin="203.858px 131.635px"><g transform-origin="203.858px 131.635px"><g transform-origin="46.875px 127.714px"><path d="M34.37 136a.22.22 0 0 1-.22-.2l-.56-6.17a1.08 1.08 0 0 0-1-1l-4.84-.54a.22.22 0 0 1 0-.44l4.84-.54a1.08 1.08 0 0 0 1-1l.56-6.17a.22.22 0 0 1 .44 0l.56 6.17a1.08 1.08 0 0 0 1 1l4.84.54a.22.22 0 0 1 0 .44l-4.84.54a1.08 1.08 0 0 0-1 1l-.56 6.17a.22.22 0 0 1-.22.2zm-4.53-8.12l2.83.31a1.55 1.55 0 0 1 1.37 1.4l.33 3.71.33-3.71a1.55 1.55 0 0 1 1.37-1.4l2.83-.31-2.83-.31a1.55 1.55 0 0 1-1.37-1.4l-.33-3.71-.37 3.74h0a1.55 1.55 0 0 1-1.37 1.4zm4-1.73h0z" transform-origin="34.37px 127.86px"/><g transform-origin="57.405px 140.492px"><path d="M57.4 151a.29.29 0 0 1-.28-.26l-.72-8a1.42 1.42 0 0 0-1.26-1.28l-6.26-.69a.29.29 0 0 1 0-.58l6.26-.69a1.42 1.42 0 0 0 1.26-1.28l.72-8a.29.29 0 0 1 .57 0l.72 8h0a1.42 1.42 0 0 0 1.26 1.28l6.26.69a.29.29 0 0 1 0 .58l-6.26.69a1.42 1.42 0 0 0-1.26 1.28l-.72 8a.29.29 0 0 1-.29.26zm-5.86-10.52l3.67.41a2 2 0 0 1 1.76 1.8l.43 4.8.44-4.8a2 2 0 0 1 1.77-1.8l3.66-.41-3.66-.41a2 2 0 0 1-1.77-1.8l-.44-4.8-.43 4.8a2 2 0 0 1-1.76 1.8z" transform-origin="57.405px 140.492px"/></g><g><g class="J" transform-origin="51px 110.019px"><path d="M51 115.61a.23.23 0 0 1-.22-.21l-.38-4.2a.68.68 0 0 0-.59-.61l-3.3-.36a.23.23 0 0 1-.2-.22.24.24 0 0 1 .2-.23l3.3-.36a.67.67 0 0 0 .59-.61l.38-4.2a.23.23 0 0 1 .45 0l.38 4.2a.65.65 0 0 0 .59.61l3.3.36a.23.23 0 0 1 .19.23.22.22 0 0 1-.19.22l-3.3.36a.66.66 0 0 0-.59.61l-.38 4.2a.23.23 0 0 1-.23.21zM48.58 110l1.29.14a1.13 1.13 0 0 1 1 1l.13 1.76.16-1.74a1.13 1.13 0 0 1 1-1l1.29-.14-1.29-.15a1.12 1.12 0 0 1-1-1l-.16-1.76-.15 1.74h0a1.12 1.12 0 0 1-1 1zm2.06-1.18h0z" transform-origin="51px 110.019px"/></g></g></g><g transform-origin="108.3px 51.4401px"><path d="M115.94 58a.29.29 0 0 1-.29-.26l-.72-8a1.42 1.42 0 0 0-1.25-1.28l-6.27-.69a.29.29 0 0 1-.25-.29.28.28 0 0 1 .25-.28l6.27-.7a1.41 1.41 0 0 0 1.25-1.28l.72-8a.3.3 0 0 1 .29-.27.29.29 0 0 1 .29.27l.72 8h0a1.42 1.42 0 0 0 1.26 1.28l6.26.7a.28.28 0 0 1 .26.28.29.29 0 0 1-.26.29l-6.26.69A1.42 1.42 0 0 0 117 49.7l-.72 8a.28.28 0 0 1-.34.3zm-5.87-10.52l3.67.41a2 2 0 0 1 1.77 1.8l.43 4.81.44-4.81a2 2 0 0 1 1.76-1.8l3.67-.41-3.67-.4a2 2 0 0 1-1.76-1.81l-.44-4.8-.43 4.8a2 2 0 0 1-1.77 1.73z" transform-origin="115.945px 47.4784px"/><g><g class="J" transform-origin="96.835px 60.005px"><path d="M96.83 65.93a.23.23 0 0 1-.23-.21l-.4-4.45a.7.7 0 0 0-.63-.64l-3.49-.39a.23.23 0 0 1-.21-.23.23.23 0 0 1 .21-.24l3.49-.39a.7.7 0 0 0 .63-.64l.4-4.45a.23.23 0 0 1 .23-.21h0a.23.23 0 0 1 .24.21l.4 4.45a.7.7 0 0 0 .63.64l3.49.39a.23.23 0 0 1 .21.24.23.23 0 0 1-.21.23l-3.49.39a.7.7 0 0 0-.63.64l-.4 4.45a.23.23 0 0 1-.24.21zM94.25 60l1.37.15a1.18 1.18 0 0 1 1 1.07l.16 1.84.22-1.83a1.18 1.18 0 0 1 1-1.07l1.41-.16-1.36-.16a1.18 1.18 0 0 1-1-1.07h0l-.17-1.84-.16 1.84a1.18 1.18 0 0 1-1 1.07z" transform-origin="96.835px 60.005px"/></g></g></g><g transform-origin="58.6749px 221.495px"><path d="M54.62 224.82a.25.25 0 0 1-.26-.24l-.67-7.38a1.32 1.32 0 0 0-1.16-1.2l-5.79-.64a.25.25 0 0 1-.23-.26.27.27 0 0 1 .23-.27l5.79-.64a1.3 1.3 0 0 0 1.16-1.19l.67-7.38a.26.26 0 0 1 .26-.25.28.28 0 0 1 .27.25l.66 7.38h0a1.31 1.31 0 0 0 1.16 1.18l5.79.64a.28.28 0 0 1 .24.27.26.26 0 0 1-.24.26l-5.79.64a1.33 1.33 0 0 0-1.16 1.19l-.66 7.38a.27.27 0 0 1-.27.26zm-5.42-9.71l3.39.37a1.85 1.85 0 0 1 1.63 1.67l.4 4.44.4-4.44a1.86 1.86 0 0 1 1.63-1.67l3.39-.37-3.39-.38a1.84 1.84 0 0 1-1.65-1.66l-.4-4.44-.4 4.44a1.83 1.83 0 0 1-1.63 1.66z" transform-origin="54.6249px 215.095px"/><g><g class="J" transform-origin="66.255px 232.145px"><path d="M66.25 237.62a.23.23 0 0 1-.22-.2l-.37-4.11a.66.66 0 0 0-.58-.6l-3.22-.35a.22.22 0 0 1-.19-.22.22.22 0 0 1 .19-.22l3.22-.35a.65.65 0 0 0 .58-.6l.37-4.1a.22.22 0 0 1 .22-.2h0a.22.22 0 0 1 .22.2l.37 4.1a.66.66 0 0 0 .58.6l3.22.35a.23.23 0 0 1 .2.22.23.23 0 0 1-.2.22l-3.22.35a.67.67 0 0 0-.58.6l-.37 4.11a.23.23 0 0 1-.22.2zm-2.38-5.48l1.26.14a1.11 1.11 0 0 1 1 1l.15 1.7.15-1.7a1.11 1.11 0 0 1 1-1l1.27-.14-1.33-.14a1.1 1.1 0 0 1-1-1h0l-.15-1.7-.12 1.7a1.1 1.1 0 0 1-1 1z" transform-origin="66.255px 232.145px"/></g></g></g><g transform-origin="301.809px 111.555px"><g><path d="M307.35 197.46a.24.24 0 0 1-.24-.22l-.61-6.72a1.2 1.2 0 0 0-1.05-1.08l-5.27-.58a.24.24 0 0 1 0-.48l5.27-.58a1.19 1.19 0 0 0 1.05-1.08l.61-6.71a.23.23 0 0 1 .24-.22.24.24 0 0 1 .24.22l.6 6.71h0a1.2 1.2 0 0 0 1.06 1.08l5.26.58a.24.24 0 0 1 .22.24.25.25 0 0 1-.22.24l-5.26.58a1.21 1.21 0 0 0-1.06 1.08l-.6 6.72a.25.25 0 0 1-.24.22zm-4.93-8.84l3.08.34a1.68 1.68 0 0 1 1.48 1.52l.37 4 .36-4a1.69 1.69 0 0 1 1.49-1.48l3.08-.34-3.08-.34a1.68 1.68 0 0 1-1.49-1.51l-.36-4-.37 4a1.67 1.67 0 0 1-1.48 1.51z" transform-origin="307.336px 188.625px"/><path d="M285.49 34.7a.13.13 0 0 1-.12-.12l-.31-3.43a.6.6 0 0 0-.54-.55l-2.69-.3a.12.12 0 0 1-.11-.12.12.12 0 0 1 .11-.13l2.69-.3a.6.6 0 0 0 .54-.55l.31-3.43a.13.13 0 0 1 .12-.12.13.13 0 0 1 .13.12l.31 3.43h0a.6.6 0 0 0 .54.55l2.69.3a.13.13 0 0 1 .11.13.13.13 0 0 1-.11.12l-2.69.3a.6.6 0 0 0-.54.55l-.31 3.43a.13.13 0 0 1-.13.12zM283 30.18l1.58.17a.86.86 0 0 1 .76.78l.18 2.06.19-2.06a.86.86 0 0 1 .76-.78l1.58-.17-1.61-.18a.86.86 0 0 1-.76-.77l-.19-2.07-.18 2.07a.86.86 0 0 1-.76.77z" transform-origin="285.495px 30.175px"/></g><g><g class="J" transform-origin="317.705px 169.54px"><path d="M317.7 174.52a.19.19 0 0 1-.19-.18l-.34-3.74a.6.6 0 0 0-.53-.54l-2.93-.32a.2.2 0 0 1 0-.4l2.93-.32a.6.6 0 0 0 .53-.54l.34-3.74a.19.19 0 0 1 .19-.18h0a.2.2 0 0 1 .2.18l.34 3.74a.6.6 0 0 0 .53.54l2.93.32a.2.2 0 0 1 0 .4l-2.93.32a.6.6 0 0 0-.53.54l-.34 3.74a.2.2 0 0 1-.2.18zm-2.16-5l1.14.13a1 1 0 0 1 .88.9l.14 1.54.14-1.54a1 1 0 0 1 .89-.9l1.14-.13-1.14-.13a1 1 0 0 1-.89-.9h0l-.14-1.49-.14 1.54a1 1 0 0 1-.88.9z" transform-origin="317.705px 169.54px"/></g></g></g><g transform-origin="363.823px 59.945px"><path d="M353.37 66a.2.2 0 0 1-.2-.18l-.48-5.35a1 1 0 0 0-.84-.86l-4.2-.47a.19.19 0 0 1 0-.38l4.2-.47a.94.94 0 0 0 .84-.85l.48-5.36a.2.2 0 0 1 .2-.18.19.19 0 0 1 .19.18l.48 5.36a1 1 0 0 0 .84.85l4.2.47a.19.19 0 0 1 0 .38l-4.2.47a1 1 0 0 0-.84.86l-.48 5.35a.19.19 0 0 1-.19.18zm-3.94-7.05l2.46.27a1.35 1.35 0 0 1 1.19 1.21l.29 3.22.29-3.22a1.33 1.33 0 0 1 1.18-1.21l2.46-.27-2.46-.27a1.33 1.33 0 0 1-1.18-1.21h0l-.29-3.22-.29 3.22a1.35 1.35 0 0 1-1.19 1.21z" transform-origin="353.365px 58.95px"/><g><g class="J" transform-origin="376.128px 74.91px"><path d="M376.14 79.77a.2.2 0 0 1-.2-.18l-.33-3.65a.59.59 0 0 0-.51-.53l-2.86-.31a.19.19 0 0 1-.17-.19.2.2 0 0 1 .17-.2l2.86-.31a.58.58 0 0 0 .51-.53l.33-3.65a.2.2 0 0 1 .2-.17.19.19 0 0 1 .19.17l.33 3.65h0a.58.58 0 0 0 .52.53l2.85.31a.2.2 0 0 1 0 .39l-2.85.31a.59.59 0 0 0-.52.53l-.33 3.65a.19.19 0 0 1-.19.18zM374 74.91l1.12.12a1 1 0 0 1 .86.88l.14 1.51.13-1.51a1 1 0 0 1 .86-.88l1.12-.12-1.12-.13a1 1 0 0 1-.86-.88l-.13-1.51-.12 1.51a1 1 0 0 1-.86.88z" transform-origin="376.128px 74.91px"/></g></g><g><g class="J" transform-origin="374.07px 44.9917px"><path d="M374 49.85a.19.19 0 0 1-.19-.18L373.5 46a.6.6 0 0 0-.52-.53l-2.86-.31A.19.19 0 0 1 370 45a.2.2 0 0 1 .17-.2l2.86-.31a.6.6 0 0 0 .52-.53l.33-3.65a.19.19 0 0 1 .38 0l.33 3.65h0a.6.6 0 0 0 .52.53l2.86.31a.2.2 0 0 1 .17.2.19.19 0 0 1-.17.19l-2.86.31a.6.6 0 0 0-.52.53l-.33 3.65a.19.19 0 0 1-.26.17zM371.9 45l1.12.12a1 1 0 0 1 .86.88l.12 1.5.14-1.51a1 1 0 0 1 .86-.88l1.12-.12-1.12-.13a1 1 0 0 1-.86-.88l-.14-1.51-.12 1.53a1 1 0 0 1-.86.88z" transform-origin="374.07px 44.9917px"/></g></g></g><g><g class="J" transform-origin="295.571px 41.2018px"><path d="M295.56 46.81a.21.21 0 0 1-.22-.2l-.38-4.2a.67.67 0 0 0-.6-.61l-3.29-.36a.23.23 0 0 1-.2-.23.23.23 0 0 1 .2-.22l3.29-.36A.68.68 0 0 0 295 40l.38-4.2a.22.22 0 0 1 .22-.21.23.23 0 0 1 .22.21l.38 4.2a.68.68 0 0 0 .6.61l3.29.36a.23.23 0 0 1 0 .45l-3.29.36a.67.67 0 0 0-.6.61l-.38 4.2a.22.22 0 0 1-.26.22zm-2.44-5.6l1.29.15a1.11 1.11 0 0 1 1 1l.16 1.74.15-1.74a1.12 1.12 0 0 1 1-1l1.29-.15-1.29-.14a1.13 1.13 0 0 1-1-1h0l-.15-1.74-.16 1.74a1.12 1.12 0 0 1-1 1z" transform-origin="295.571px 41.2018px"/></g></g></g></g><g id="K" class="B" transform-origin="233.82px 435.569px"><g transform-origin="118.16px 438.613px"><path d="M148.5 448.61l-28.43-16.42a4.2 4.2 0 0 0-3.82 0l-28.43 16.42a1.33 1.33 0 0 0-.78 1.1v2.07a1.33 1.33 0 0 0 .78 1.1l28.43 16.41a4.2 4.2 0 0 0 3.82 0l28.43-16.41a1.31 1.31 0 0 0 .78-1.1v-2.07a1.31 1.31 0 0 0-.78-1.1z" class="C" transform-origin="118.16px 450.74px"/><g><path d="M149.28 449.71v2.07a1.31 1.31 0 0 1-.78 1.1l-28.43 16.41a3.86 3.86 0 0 1-1.91.46v-38a3.86 3.86 0 0 1 1.91.46l28.43 16.42a1.31 1.31 0 0 1 .78 1.08z" class="H" transform-origin="133.72px 450.75px"/></g><g><path d="M118.16 431.73v38a3.86 3.86 0 0 1-1.91-.46l-28.43-16.39a1.33 1.33 0 0 1-.78-1.1v-2.07a1.33 1.33 0 0 1 .78-1.1l28.43-16.42a3.86 3.86 0 0 1 1.91-.46z" opacity=".3" transform-origin="102.6px 450.73px"/></g><path d="M116.25 467.23l-28.43-16.42a1.16 1.16 0 0 1 0-2.2l28.43-16.42a4.22 4.22 0 0 1 3.82 0l28.43 16.42a1.16 1.16 0 0 1 0 2.2l-28.43 16.42a4.22 4.22 0 0 1-3.82 0z" class="C" transform-origin="118.16px 449.71px"/><g class="D"><path d="M116.25 467.23l-28.43-16.42a1.16 1.16 0 0 1 0-2.2l28.43-16.42a4.22 4.22 0 0 1 3.82 0l28.43 16.42a1.16 1.16 0 0 1 0 2.2l-28.43 16.42a4.22 4.22 0 0 1-3.82 0z" class="J" transform-origin="118.16px 449.71px"/></g><g><path d="M118.16,431.74a4,4,0,0,0-1.91.45L87.82,448.61a1.16,1.16,0,0,0,0,2.2l28.43,16.42a4,4,0,0,0,1.91.45Z" opacity=".05" transform-origin="102.594px 449.71px"/></g><path d="M135.71 447.64h0l-12.58-37.79v-.05h0a2.93 2.93 0 0 0-1.37-1.47 7.92 7.92 0 0 0-7.16 0 2.93 2.93 0 0 0-1.37 1.47h0 0 0l-12.57 37.79h0c-1.16 3.29.47 6.84 4.88 9.38 7 4 18.34 4 25.34 0 4.36-2.49 5.99-6.04 4.83-9.33z" class="C" transform-origin="118.185px 433.722px"/><g class="K"><path d="M126.74 420.69h0l-1.79-5.37a2.6 2.6 0 0 1-.78 2.7 5.09 5.09 0 0 1-1.12.86 10.82 10.82 0 0 1-9.76 0 5.09 5.09 0 0 1-1.12-.86 2.61 2.61 0 0 1-.78-2.71l-1.79 5.39h0a3.11 3.11 0 0 0 .39 2.71 5.79 5.79 0 0 0 2 1.81 10 10 0 0 0 2.17.89 14.57 14.57 0 0 0 8 0 9.78 9.78 0 0 0 2.17-.89 5.79 5.79 0 0 0 2-1.81 3.09 3.09 0 0 0 .41-2.72z" transform-origin="118.169px 420.99px"/><path d="M134 442.34h0l-1.79-5.37a4.87 4.87 0 0 1 .1 2.7 6.22 6.22 0 0 1-1.52 2.72 10.27 10.27 0 0 1-2.5 1.94c-5.56 3.22-14.58 3.22-20.14 0a10.27 10.27 0 0 1-2.5-1.94 6.22 6.22 0 0 1-1.52-2.72 4.87 4.87 0 0 1 .1-2.7l-1.79 5.37v.05a5.4 5.4 0 0 0-.2 2.7c.37 2.05 1.9 4 4.62 5.61 6.28 3.63 16.46 3.63 22.74 0 2.72-1.57 4.25-3.56 4.62-5.61a5.44 5.44 0 0 0-.22-2.75z" transform-origin="118.229px 445.196px"/><path d="M130.35 431.51h0l-1.79-5.38a3.67 3.67 0 0 1-.17 2.7 6.35 6.35 0 0 1-2.66 2.71l-.08.06a16.56 16.56 0 0 1-15 0l-.08-.06a6.35 6.35 0 0 1-2.66-2.71 3.61 3.61 0 0 1-.16-2.7l-1.75 5.35h0a4.26 4.26 0 0 0 0 2.71 6.17 6.17 0 0 0 2 2.7 9.58 9.58 0 0 0 1.44 1 15.47 15.47 0 0 0 4.76 1.71 21.21 21.21 0 0 0 8 0 15.62 15.62 0 0 0 4.77-1.71 10 10 0 0 0 1.43-1 6.17 6.17 0 0 0 2-2.7 4.29 4.29 0 0 0-.05-2.68z" transform-origin="118.185px 433.055px"/></g><g><path d="M118.16,407.48a7.32,7.32,0,0,0-3.58.85,2.93,2.93,0,0,0-1.37,1.47h0v0h0l-12.57,37.79h0c-1.16,3.29.47,6.84,4.88,9.38a25.92,25.92,0,0,0,12.67,3h-.11a10.65,10.65,0,0,1-8.71-12l5.24-37.62Z" class="H" transform-origin="109.234px 433.727px"/></g><path d="M114.58 412.47c-2-1.14-2-3 0-4.14a7.92 7.92 0 0 1 7.16 0c2 1.15 2 3 0 4.14a7.92 7.92 0 0 1-7.16 0z" class="C" transform-origin="118.16px 410.4px"/><g class="D"><path d="M114.58 412.47c-2-1.14-2-3 0-4.14a7.92 7.92 0 0 1 7.16 0c2 1.15 2 3 0 4.14a7.92 7.92 0 0 1-7.16 0z" class="J" transform-origin="118.16px 410.4px"/></g></g><g transform-origin="349.485px 432.524px"><path d="M379.82 442.52l-28.43-16.42a3.84 3.84 0 0 0-1.9-.46 3.9 3.9 0 0 0-1.92.46l-28.42 16.42a1.34 1.34 0 0 0-.79 1.1v2.07a1.35 1.35 0 0 0 .79 1.11l28.42 16.4a3.9 3.9 0 0 0 1.92.46 3.84 3.84 0 0 0 1.9-.46l28.43-16.4a1.35 1.35 0 0 0 .79-1.11v-2.07a1.34 1.34 0 0 0-.79-1.1z" class="C" transform-origin="349.485px 444.65px"/><g><path d="M380.61 443.62v2.07a1.35 1.35 0 0 1-.79 1.11l-28.43 16.4a3.84 3.84 0 0 1-1.9.46v-38a3.84 3.84 0 0 1 1.9.46l28.43 16.42a1.34 1.34 0 0 1 .79 1.08z" class="H" transform-origin="365.05px 444.66px"/></g><g><path d="M349.49 425.64v38a3.9 3.9 0 0 1-1.92-.46l-28.42-16.4a1.35 1.35 0 0 1-.79-1.11v-2.07a1.34 1.34 0 0 1 .79-1.1l28.42-16.42a3.9 3.9 0 0 1 1.92-.44z" opacity=".3" transform-origin="333.925px 444.64px"/></g><path d="M347.58 461.14l-28.43-16.42a1.16 1.16 0 0 1 0-2.2l28.43-16.41a4.19 4.19 0 0 1 3.81 0l28.43 16.41a1.16 1.16 0 0 1 0 2.2l-28.43 16.42a4.19 4.19 0 0 1-3.81 0z" class="C" transform-origin="349.485px 443.625px"/><g class="D"><path d="M347.58 461.14l-28.43-16.42a1.16 1.16 0 0 1 0-2.2l28.43-16.41a4.19 4.19 0 0 1 3.81 0l28.43 16.41a1.16 1.16 0 0 1 0 2.2l-28.43 16.42a4.19 4.19 0 0 1-3.81 0z" class="J" transform-origin="349.485px 443.625px"/></g><g><path d="M349.49,425.65a3.87,3.87,0,0,0-1.92.46l-28.42,16.41a1.16,1.16,0,0,0,0,2.2l28.43,16.42a3.91,3.91,0,0,0,1.91.46Z" opacity=".05" transform-origin="333.924px 443.625px"/></g><path d="M367 441.55h0l-12.58-37.78v-.06h0a2.92 2.92 0 0 0-1.37-1.46 7.88 7.88 0 0 0-7.17 0 2.92 2.92 0 0 0-1.37 1.46h0 0 0l-12.58 37.79h0c-1.16 3.29.46 6.84 4.88 9.39 7 4 18.34 4 25.33 0 4.43-2.5 6.05-6.05 4.86-9.34z" class="C" transform-origin="349.473px 427.639px"/><g class="K"><path d="M358.07 414.6h0l-1.79-5.37a2.63 2.63 0 0 1-.78 2.7 5.09 5.09 0 0 1-1.12.86 10.85 10.85 0 0 1-9.77 0 5.09 5.09 0 0 1-1.12-.86 2.63 2.63 0 0 1-.78-2.71l-1.79 5.39h0a3.09 3.09 0 0 0 .4 2.7 5.62 5.62 0 0 0 2 1.81 9.78 9.78 0 0 0 2.17.89 14.36 14.36 0 0 0 8 0 9.78 9.78 0 0 0 2.17-.89 5.7 5.7 0 0 0 2-1.81 3.09 3.09 0 0 0 .41-2.71z" transform-origin="349.495px 414.899px"/><path d="M365.28 436.25h0l-1.79-5.38a4.78 4.78 0 0 1 .1 2.7 6.09 6.09 0 0 1-1.51 2.72 10.69 10.69 0 0 1-2.5 1.95c-5.57 3.21-14.59 3.21-20.15 0a10.69 10.69 0 0 1-2.5-1.95 6.22 6.22 0 0 1-1.52-2.72 5 5 0 0 1 .1-2.7l-1.78 5.37v.05a5.55 5.55 0 0 0-.2 2.71c.37 2 1.91 4 4.62 5.6 6.28 3.63 16.47 3.63 22.75 0 2.71-1.57 4.25-3.56 4.62-5.6a5.6 5.6 0 0 0-.24-2.75z" transform-origin="349.52px 439.096px"/><path d="M361.67 425.43h0l-1.8-5.43a3.65 3.65 0 0 1-.17 2.71 6.35 6.35 0 0 1-2.66 2.71l-.08.05a16.54 16.54 0 0 1-14.95 0l-.08-.05a6.35 6.35 0 0 1-2.66-2.71 3.65 3.65 0 0 1-.17-2.71l-1.79 5.38h0a4.19 4.19 0 0 0 0 2.71 6.17 6.17 0 0 0 2 2.7 10.12 10.12 0 0 0 1.44 1 15.62 15.62 0 0 0 4.77 1.71 21.16 21.16 0 0 0 8 0 15.62 15.62 0 0 0 4.77-1.71 10.12 10.12 0 0 0 1.44-1 6.17 6.17 0 0 0 2-2.7 4.19 4.19 0 0 0-.06-2.66z" transform-origin="349.501px 426.941px"/></g><g><path d="M349.48 401.39a7.24 7.24 0 0 0-3.58.86 2.92 2.92 0 0 0-1.37 1.46h0 0 0l-12.58 37.79h0c-1.16 3.29.46 6.84 4.88 9.39a25.85 25.85 0 0 0 12.66 3h-.1a10.64 10.64 0 0 1-8.71-12l5.23-37.62z" class="H" transform-origin="340.539px 427.642px"/></g><path d="M345.9 406.38c-2-1.14-2-3 0-4.13a7.88 7.88 0 0 1 7.17 0c2 1.14 2 3 0 4.13a7.88 7.88 0 0 1-7.17 0z" class="C" transform-origin="349.485px 404.315px"/><g class="D"><path d="M345.9 406.38c-2-1.14-2-3 0-4.13a7.88 7.88 0 0 1 7.17 0c2 1.14 2 3 0 4.13a7.88 7.88 0 0 1-7.17 0z" class="J" transform-origin="349.485px 404.315px"/></g></g></g><g id="L" class="B" transform-origin="390.625px 250.605px"><g transform-origin="390.625px 250.605px"><path d="M357.3,190.46a49.34,49.34,0,0,0-5.49-1.27c-1.41-.27-2.23.28-5.61,2.13s-4.13,2.81-4.44,3.88a2.33,2.33,0,0,0,.92,2.57,2,2,0,0,0,.55,3.44,1.85,1.85,0,0,0,.73,3c-.53.61-.29,2.93,1.79,3.44a37.12,37.12,0,0,0,5.46.74Z" class="M" transform-origin="349.484px 198.758px"/><g transform-origin="343.404px 223.27px"><path d="M385.46 359.4a3.26 3.26 0 0 0 2.88-.65 1 1 0 0 0 .4-1l-53.45-241.91-4.06.92 53.45 241.93a1 1 0 0 0 .78.71z" class="F" transform-origin="359.994px 237.67px"/><g class="E"><path d="M334.89 116.82a.9.9 0 0 0-.38-1.66 3.24 3.24 0 0 0-2.87.65.9.9 0 0 0 .37 1.66 3.26 3.26 0 0 0 2.88-.65z" transform-origin="333.264px 116.315px"/><path d="M312.65 107h.08a.48.48 0 0 0 .37-.59l-2.66-11.5a.5.5 0 0 0-1 .22l2.67 11.5a.5.5 0 0 0 .54.37z" transform-origin="311.272px 100.757px"/><path d="M348.71 122.22a2.79 2.79 0 0 0 1.81-.73 3.48 3.48 0 0 0 .74-3.45l-2.78-12a.49.49 0 0 0-.59-.37.5.5 0 0 0-.37.6l2.78 12a2.13 2.13 0 0 1-3 2.79l-28.7-8.77a8.94 8.94 0 0 1-5.51-5.9.48.48 0 0 0-.59-.37.49.49 0 0 0-.37.59 10 10 0 0 0 6.18 6.62L347 122a4.71 4.71 0 0 0 1.71.22z" transform-origin="331.777px 113.942px"/></g><path class="C" d="M361.5 109.63l-58.37-17.84-3.57 2.06 2.25 9.68 58.36 17.84 3.57-2.06-2.24-9.68z" transform-origin="331.65px 106.58px"/><g class="D"><path class="I" d="M361.5 109.63l-58.37-17.84-3.57 2.06 2.25 9.68 58.36 17.84 3.57-2.06-2.24-9.68z" transform-origin="331.65px 106.58px"/></g><g class="C"><path d="M357.93 111.69l-58.37-17.84 2.25 9.68 58.36 17.84-2.24-9.68z" transform-origin="329.865px 107.61px"/><path d="M357.93 111.69l3.57-2.06 2.24 9.68-3.57 2.06-2.24-9.68z" transform-origin="360.835px 115.5px"/></g><g><path class="I" d="M357.93 111.69l3.57-2.06 2.24 9.68-3.57 2.06-2.24-9.68z" transform-origin="360.835px 115.5px"/></g><path class="E" d="M355.83 104.7l-57.78-17.66 1.51 6.81 58.37 17.84 2.07-1.2-4.17-5.79z" transform-origin="329.025px 99.365px"/><path class="F" d="M355.83 104.7l2.1 6.99 2.07-1.2-4.17-5.79z" transform-origin="357.915px 108.195px"/><g class="G"><path d="M350 113.18c-.47-.14-.77.18-.66.73a1.75 1.75 0 0 0 1.09 1.25c.49.15.79-.18.66-.72a1.83 1.83 0 0 0-1.09-1.26z" transform-origin="350.219px 114.172px"/><path d="M311.91 101.93c-.47-.15-.77.18-.66.72a1.79 1.79 0 0 0 1.09 1.26c.49.14.79-.19.66-.73a1.82 1.82 0 0 0-1.09-1.25z" transform-origin="312.129px 102.918px"/></g><path d="M351.21 208.38c.67 0 1.54-1.06 2.17-1.77s1.43-1.57 1.37-2.18c-.08-.87-1.29-.88-1.29-.88a5.16 5.16 0 0 0 .6-.53c.76-.74-.62-1.75-1.84-1.3 0 0 .52-.3.54-.65a1.59 1.59 0 0 0-1.7-1.54c.87-.43.58-1.66 0-2.6a5.8 5.8 0 0 0-2.57.45c-.77 3.15.25 7.25 1.43 10.9-.01 0 .79.1 1.29.1z" class="M" transform-origin="351.488px 202.651px"/><g fill="#b16668"><path d="M344 204.2a17.53 17.53 0 0 0 2.45.7 24.33 24.33 0 0 0 2.49.49 3.8 3.8 0 0 0 2.35-.57c.75-.38 1.49-.81 2.21-1.27a14.7 14.7 0 0 1-2.1 1.48 3.84 3.84 0 0 1-2.5.66 19 19 0 0 1-2.51-.56 10.87 10.87 0 0 1-2.39-.93z" transform-origin="348.75px 204.627px"/><path d="M352.22 201.72a18.86 18.86 0 0 1-2.16.95 3.11 3.11 0 0 1-1.19.21 10.07 10.07 0 0 1-1.17-.24 46.47 46.47 0 0 1-4.47-1.43l4.55 1.13 1.11.25a3.25 3.25 0 0 0 1.1-.15c.75-.2 1.48-.44 2.23-.72z" transform-origin="347.725px 202.045px"/><path d="M351.06 199.53a4.55 4.55 0 0 1-2.16.47 14.66 14.66 0 0 1-2.14-.6l-4.08-1.63 4.18 1.34a18.29 18.29 0 0 0 2.07.65 5.4 5.4 0 0 0 2.13-.23z" transform-origin="346.87px 198.886px"/></g></g><path d="M394.62 160.57l-8.82 18.51L361.64 190a8.41 8.41 0 0 1-4.68.4c-2.61-.36-3.74-.4-5.15.18s-5.9 2.4-6.72 3.53a24.16 24.16 0 0 0-2.23 4.4c-.76 1.62-.76 2.35.82 2.36 1.94 0 3.08-1.66 3.81-3a6.45 6.45 0 0 1 3.56-1 5.19 5.19 0 0 0 .41.86h0a12.28 12.28 0 0 0 1.86 2l.49 2.07c.32.28.67.76.23 1.15l-.6.53s1.23 0 1.31.87a1.6 1.6 0 0 1-.18.67l.65 2.77s3.92-.3 5.5-2c1.43-1.49 1.49-2.13 5.81-3.92 1.34-.56 14-4.67 23.63-7.43 7.39-2.12 7.63-2.89 11.13-8 5.47-8 11.73-18.92 11.73-18.92v-24.75c-9.18 1.35-11.64 3.32-18.4 17.8z" class="O" transform-origin="377.693px 175.28px"/><path d="M353.32,199.81c1.38,1.84,4.26,2.72,6.72,2.58-4.07.88-6.23-.51-6.23-.51Z" class="M" transform-origin="356.68px 201.246px"/><g transform-origin="423.675px 302.575px"><path d="M465.51 372.34c-.91-12.5.6-26.24-.44-45.76h0c-.1-5-.28-10.36-.61-15.12-1.13-16-3.6-21.5-3.83-24.59l-2.26-65.75c-.49-16.49-5.27-21.48-9.09-30.24H403.9c-5.07 21.6-6.51 68.7-6.36 91 .07 11.35 4.66 72.05 4.75 73.45.32 4.95-.11 6.91-2.05 9-4.07 4.36-10 8.52-15.06 12.32.74 1.95 6.87 1.88 9.9.39a76.46 76.46 0 0 0 11.31-7.21c4.19-3.1 9.54-5.58 9.61-10.3a4.57 4.57 0 0 1 .14-.84c.08-2.75 6.5-43.36 7-52.79.46-8.1-.53-21.85-.53-21.85l5.23-34.32s4 26.06 7.27 39.91l10 44.39h0c2.87 16 7 31.53 7.71 39.53.22 1.91 2.39 20.66 3.28 25s10.25 4.41 10.86-3c.44-4.99-1.28-20.86-1.45-23.22z" class="O" transform-origin="426.106px 296.208px"/><path d="M376.51,381.58c-.26,0-.68,2.85.72,4.08,1.61,1.42,6.35,3.77,12.66,3s9.74-2.66,12.28-4.74,6.11-5,9-5.62c2.65-.56,5.54-1.72,6.4-2.53s.78-4.45.78-4.45Z" class="F" transform-origin="397.297px 380.066px"/><path d="M416.27 357.31s.47 0 .63.86l.76 5.57a29.47 29.47 0 0 1 .52 8.85c-.36 1.86-4.69 3.11-7.46 4.13a35.05 35.05 0 0 0-9 5.55c-3 2.41-9.24 4.79-13.35 4.8-6.27 0-10.31-1.72-11.54-4-1.52-2.81-.29-4.41 6.95-7.67 1.37-.62 6.2-3.4 7.84-4.41a37.13 37.13 0 0 0 4.94-3.6 26.49 26.49 0 0 0 2.22-2.15 9.74 9.74 0 0 0 1.85-2.31 6.32 6.32 0 0 0 .22-.61 9.8 9.8 0 0 0 .49-1.68c.12-.6.2-1.47.78-1.82a4.76 4.76 0 0 1 2.57-.28 19.83 19.83 0 0 1 2.78.42c1.06.25 2.28.36 2.9 1.36a5.37 5.37 0 0 1 .57 2.62v1.26c0 .18-.08.51.18.43s.51-.69.6-.9c.21-.47.34-1 .57-1.44a7.48 7.48 0 0 1 .91-1.51 7 7 0 0 1 1.15-1.15 13.06 13.06 0 0 0 1.24-.79 2.84 2.84 0 0 0 .68-1.53z" class="E" transform-origin="397.281px 372.19px"/><path d="M382.62 376c9.07.72 11.86 6.36 12.21 9.83a21.21 21.21 0 0 1-6.46 1.28c-6.27 0-10.57-1.72-11.8-4-1.43-2.67-.41-4.78 6.05-7.11z" class="K" transform-origin="385.417px 381.555px"/><g fill="#f0f0f0"><path d="M396.22 376.2a.42.42 0 0 0 .28-.1.44.44 0 0 0 .07-.62 10.68 10.68 0 0 0-8.17-3.33.45.45 0 0 0 .09.89 9.85 9.85 0 0 1 7.39 3 .44.44 0 0 0 .34.16z" transform-origin="392.355px 374.171px"/><path d="M400.15 374a.46.46 0 0 0 .29-.1.44.44 0 0 0 .07-.62 10.68 10.68 0 0 0-8.18-3.32.43.43 0 0 0-.39.48.44.44 0 0 0 .48.4 9.85 9.85 0 0 1 7.39 3 .47.47 0 0 0 .34.16z" transform-origin="396.272px 371.976px"/><path d="M403.8 371.4a.46.46 0 0 0 .29-.1.43.43 0 0 0 .06-.62 10.65 10.65 0 0 0-8.17-3.32.45.45 0 0 0-.4.48.46.46 0 0 0 .49.4 9.89 9.89 0 0 1 7.39 3 .44.44 0 0 0 .34.16z" transform-origin="399.917px 369.376px"/><path d="M407.38 368.84a.44.44 0 0 0 .35-.72c-1.71-2.21-5.62-3.7-8.92-3.38a.45.45 0 0 0-.4.49.45.45 0 0 0 .48.4c3-.29 6.62 1.07 8.14 3a.47.47 0 0 0 .35.21z" transform-origin="403.117px 366.768px"/></g><path d="M453.21,401.81c.25,4.28.91,7.12,2.43,9.63s4.39,3.3,7.29,2.57,6.62-2.7,7.45-6.4,1.32-6.22.66-10.19Z" class="F" transform-origin="462.278px 405.845px"/><path d="M465.41 370.81c1.19.1 1.55 5.85 2.24 11.6.74 6.17 2.58 8.72 3.24 13.78.75 5.78-.2 8.36-2.23 11.85s-9.19 6.96-12.72 1.96c-2.88-4.08-3-8.6-2.74-14.37a129.62 129.62 0 0 0-.38-14.62c-.24-4.33-1.2-8.69-.16-9.18l.25 2.07a10 10 0 0 0 .38 2.31c.12.32.39.66.5.13a3.49 3.49 0 0 0 0-1.07c-.18-1.6.63-1.73 1.06-1.85a54.49 54.49 0 0 1 5.55-.79c.91-.06 4.06-.2 4.47.32a3.54 3.54 0 0 1 .4 1.68c.11.87.31 1.5.33 1.23.06-.62-.06-2.24-.08-2.63s-.07-.89-.08-1.27l-.03-1.15z" class="E" transform-origin="461.666px 391.656px"/><path d="M471.22 399.54a14.36 14.36 0 0 1-2.24 8.78c-2 3.49-9.77 6.93-13.3 1.93-1.76-2.49-2.23-5.44-2.47-8.44 2.12-3.81 14.67-5.56 18.01-2.27z" class="K" transform-origin="462.233px 405.283px"/><g fill="#f0f0f0"><path d="M455.82 395.53h.15s5.58-2.31 11-1.07a.46.46 0 0 0 .54-.33.45.45 0 0 0-.34-.53 20.8 20.8 0 0 0-11.55 1.13.45.45 0 0 0-.21.59.46.46 0 0 0 .41.21z" transform-origin="461.444px 394.387px"/><path d="M466.67 390.12a.45.45 0 0 0 .37-.3.45.45 0 0 0-.28-.57c-5.36-1.81-11.31.91-11.53 1a.44.44 0 0 0-.19.6.46.46 0 0 0 .6.19c.05 0 5.85-2.67 10.84-1a.58.58 0 0 0 .19.08z" transform-origin="461.026px 389.858px"/><path d="M466.48 386.05a.43.43 0 0 0 .37-.29.44.44 0 0 0-.27-.56c-5.89-2.12-11.54.86-11.75 1a.44.44 0 1 0 .46.76s5.5-2.88 11-.92a.46.46 0 0 0 .19.01z" transform-origin="460.745px 385.733px"/></g><path d="M466.18 382.06a.45.45 0 0 0 .12-.86c-5.53-2.07-11.61 1-11.84 1.12a.45.45 0 0 0 .45.77s5.94-3 11.07-1.06a.49.49 0 0 0 .2.03z" fill="#ebebeb" transform-origin="460.43px 381.805px"/><path d="M450.5,191c5.37,9.8,9.36,17.82,9.91,47s1.24,43.09,1.36,46.61,2.16,9.79,4,27.11.15,37.59.15,37.59-1.71,3.14-8.34,3.74c-6.1.54-9.13-1.75-9.13-1.75s-8.37-33.72-10.69-44.15-9.84-50.49-9.84-50.49l-4,27.81s1.86,9.56,0,24.74S418.73,340,418.73,340a27.54,27.54,0,0,1-9.38,1.53,15.88,15.88,0,0,1-8.23-2.15s-5.19-45.18-5.19-62.39,1.45-60.24,6.87-85.72Z" class="G" transform-origin="431.279px 272.066px"/><g class="O"><path d="M455 287.7s-3.36-3.51-9.82-2.73-9.08 4.58-9.08 4.58c6.9-3.12 18.9-1.85 18.9-1.85zm-15.2 3.09c3.8.76 7.6 1.1 15.92-.55-3.98-.96-15.95.55-15.95.55z" transform-origin="445.91px 288.139px"/><path d="M412.75 282c-2.38-1.37-11.23-3.17-16.79-2.43l.06 1.87a81.26 81.26 0 0 1 16.73.56zm-16.63 1.86l.09 1.75s8.87-.45 12.59-1.45c-6.34-.51-12.68-.31-12.68-.31z" transform-origin="404.355px 282.504px"/></g><path d="M460.24 298.06l-.61-2.85c-1.69-8-2.46-24.36-2.43-37.7v-12.62c-.16-17.36-1.49-36.81-10.28-49.34l-.7.49c5.9 8.43 8.39 20.09 9.42 32.13-8.72-1.15-10.63-9.76-13.23-21.62q-.52-2.43-1.12-5l-.84.19q.6 2.58 1.12 5c2.59 11.83 4.65 21.2 14.14 22.33.42 5.3.58 10.65.62 15.83v12.61c0 13.39.74 29.73 2.44 37.88l.61 2.85c2.26 10.42 5.64 26.05 4 53.26a8.29 8.29 0 0 0 .9-.59c1.57-26.91-1.79-42.47-4.04-52.85zm-55.73-82c1.22 5.72 10.36 10.55 14.51 11.54l1.05 5.83-.65 9.71c-1.27 18.52-2.58 37.66-1.63 42 2.49 11.37 1.76 18.58.42 31.67l-.43 4.21-2.15 19.83c.32-.06.62-.13.9-.2l2.11-19.55.43-4.2c1.35-13.18 2.09-20.44-.44-31.94-.92-4.2.45-24.14 1.65-41.74l.42-6.26 3.7 20.52-.52 27 4-27.81-5.45-33.1s-11.52-.83-17.92-7.52z" class="E" transform-origin="434.597px 273.525px"/></g><g transform-origin="441.265px 157.867px"><path d="M459.45 211.23l-4.88-21.77c-1.59-11.84.51-17.85 1.29-23 1.69-11.28-1.55-20.73-4.17-23l-6-1.41a46.19 46.19 0 0 0-5.62-1 66.92 66.92 0 0 0-15.07-.41c-1.22.12-7 1.12-7 1.12-1.75.41-5 1-5 1a37 37 0 0 0-7.76 10c-2.86 5.11-4.49 9.39-5 20.34-.65 13.95-.91 30.74-.91 40.47 11.58 7.08 45.61 10.05 60.12-2.34z" class="F" transform-origin="429.39px 180.049px"/><g transform-origin="433.547px 118.712px"><path d="M451.91 98.58a11.17 11.17 0 0 1 4.8 6.09 23.66 23.66 0 0 1 1.1 7.81c0 3.78-.37 7.57 0 11.33s1.59 7.6 4.3 10.23c.29.27.61.6.55 1s-.42.6-.77.74a6.62 6.62 0 0 1-7.38-1.77 25.46 25.46 0 0 1 1.1 8 9.5 9.5 0 0 1-3.44 7c-3.3 2.45-8.12 1.58-11.57-.66-5.3-3.44-8.45-9.59-9.27-15.86s.48-12.64 2.58-18.61c.8-2.3 1.73-4.56 2.72-6.78.85-1.91 1.71-3.83 2.68-5.68a8.9 8.9 0 0 1 2.25-3 6.13 6.13 0 0 1 3.5-1.13 13.42 13.42 0 0 1 6.11 1c.25.03.5.16.74.29z" class="F" transform-origin="446.874px 123.871px"/><path d="M445.31 96.78c2.49-1.08 6.31 5.86 4.44 9.39-2.29 4.3-9.38-6.54-4.44-9.39z" class="C" transform-origin="446.923px 101.917px"/><path d="M439.58,132c0-3.38,4.94-8.62,8-15.72s2-12.38-1.1-14.19c0-4-1.62-13.23-19.4-14.93-15-1.43-20.68,4.43-22.1,8.65-2,6.06,2.07,9.13,2.07,9.13s-3.81,1.92-1.72,7.19,8.72,3.67,8.72,3.67Z" class="F" transform-origin="426.918px 109.47px"/><path d="M439.49 137.62c0-1.85.23-11.13.23-11.13.08.69 3.45 2.58 6.45-1s3.2-7.38 1.39-9.8c-2-2.67-7.22-2.6-7.71 1.92-2.59-.1-3.84-1.22-2.82-5.49-.27-3-3.65-3.85-3.57-10.35-8.52-5.63-17.15-5.22-22.32-.75a50.34 50.34 0 0 0-2 16.37c.37 9.84 3 14.59 6.16 16.24 2.12 1.1 4 1.36 7.72 1.05l-.17 3.09h0c-.07 1.54.07 2.69-1.43 3.2-1 .34-3.41.8-3.41.8s-3.5 6 6.16 6.59c15.39.87 21.55-6.29 21.55-6.29l-3.4-1c-2.54-.83-2.81-1.6-2.83-3.45z" class="O" transform-origin="428.906px 123.02px"/><path d="M426 123l-5.81 1.87A3 3 0 0 0 424 127a3.2 3.2 0 0 0 2-4z" fill="#b16668" transform-origin="423.171px 125.069px"/><path d="M425.66 124.37a3.36 3.36 0 0 0-3.36 2.63 2.87 2.87 0 0 0 1.69 0 3.15 3.15 0 0 0 2.12-2.55 3.44 3.44 0 0 0-.45-.08z" class="M" transform-origin="424.205px 125.748px"/><g class="F"><path d="M412 108.8l3.64-2a2 2 0 0 0-2.77-.86 2.19 2.19 0 0 0-.87 2.86z" transform-origin="413.708px 107.243px"/><path d="M429.56 109.09l-4-1.26a2 2 0 0 1 2.57-1.43 2.23 2.23 0 0 1 1.43 2.69z" transform-origin="427.598px 107.695px"/><path d="M416.19 112.41a1.78 1.78 0 0 1-1.6 1.89 1.66 1.66 0 0 1-1.86-1.53 1.78 1.78 0 0 1 1.59-1.9 1.68 1.68 0 0 1 1.87 1.54z" transform-origin="414.46px 112.586px"/><path d="M428.79 112.69a1.79 1.79 0 0 1-1.59 1.9 1.68 1.68 0 0 1-1.87-1.54 1.8 1.8 0 0 1 1.6-1.9 1.68 1.68 0 0 1 1.86 1.54z" transform-origin="427.06px 112.871px"/></g><g class="M"><path d="M414.8 117.93l5.5 2.61 1.1-10.54c-2.19 0-4.4 3.64-6.6 7.93z" transform-origin="418.1px 115.27px"/><path d="M423,134.68c6.61-.69,12.93-2.86,14.41-5.88a7.87,7.87,0,0,1-2.65,4.87c-4.41,3.69-11.89,3.34-11.89,3.34Z" transform-origin="430.14px 132.909px"/></g></g><g transform-origin="466.032px 186.137px"><path d="M462.39 226.75c2.79.79 6.36-2.67 7.33-3.88s-.28-4.07-.87-6.49 0-6.5-3-5.36-9.27 9.22-3.46 15.73z" class="M" transform-origin="465.042px 218.845px"/><path d="M451.69 143.48c7.75 1.14 11.35 3 15.61 11.59 5 10 13 23.89 14.27 28.23 1.15 4 3.46 6.92-1 13-4 5.62-16.74 20.34-18.61 22.49-1.65 1.91-.74 7.39 4.94 6.57 0 0-4.32 3.83-6.69 3.4-2.05-.37-5.27-2.16-8.22-8.37-1.87-3.92-.31-7 2.53-11.36 3.38-5.21 10.7-19.74 10.7-19.74l-13.09-23.25s-7.05-15.67-.44-22.56z" class="O" transform-origin="466.032px 186.137px"/></g></g></g></g><g id="O" class="B" transform-origin="430.155px 49.9672px"><g id="O" transform-origin="430.155px 49.9672px"><g id="O" transform-origin="430.155px 49.9672px"><path d="M428.77,75.17l2.69-5.07-2.17-6.25V60l6.64,3.83v3.83l-2.86,4.94a.35.35,0,0,1-.19.17h0Z" class="C" transform-origin="432.35px 67.585px"/><g><path d="M428.77,75.17l2.69-5.07-2.17-6.25V60l6.64,3.83v3.83l-2.86,4.94a.35.35,0,0,1-.19.17h0Z" class="I" transform-origin="432.35px 67.585px"/></g><path d="M412.93,29.57a4.39,4.39,0,0,1,2-3.44l1.62-.94a4.43,4.43,0,0,1,4,0l24.84,14.37a4.39,4.39,0,0,1,2,3.44V70.33a4.41,4.41,0,0,1-2,3.44l-1.62.94a4.43,4.43,0,0,1-4,0l-8-4.62L428.92,75a.42.42,0,0,1-.77-.07l-3-8.69-10.23-5.92a4.39,4.39,0,0,1-2-3.44Z" class="C" transform-origin="430.155px 49.9672px"/><g><path d="M447.33,70.33a4.41,4.41,0,0,1-2,3.44l-1.62.94a4.48,4.48,0,0,1-3.64.16c.93.35,1.65-.18,1.65-1.31V46.23a4.17,4.17,0,0,0-.58-2L446.75,41a4.06,4.06,0,0,1,.58,2Z" class="I" transform-origin="443.7px 58.0905px"/></g><g class="D"><path d="M413,29c.23-.85,1-1.12,1.92-.59l24.84,14.37a3.85,3.85,0,0,1,1.4,1.48l5.6-3.23a4.11,4.11,0,0,0-1.41-1.48L420.51,25.19a4.43,4.43,0,0,0-4,0l-1.62.94A4.35,4.35,0,0,0,413,29Z" opacity=".3" transform-origin="429.88px 34.4864px"/></g></g><g class="K" transform-origin="426.785px 53.0817px"><path d="M418.89 50.41a4.1 4.1 0 0 0 1.45 2.59 3.23 3.23 0 0 0-.21 1.24 3.9 3.9 0 0 0 1.9 3l8.57 5V51l-2.57-6.14a24.47 24.47 0 0 1 0-4 2 2 0 0 0-2.3-1 1 1 0 0 0-.51.55 6.55 6.55 0 0 0-.51 1.79 9.27 9.27 0 0 0 .17 3.18l-5.18-3a1 1 0 0 0-1-.14 1.24 1.24 0 0 0-.54 1.12 3.83 3.83 0 0 0 .83 2.23s-1-.31-1 1.08a3.66 3.66 0 0 0 1.26 2.55s-.36.22-.36 1.19z" transform-origin="424.295px 51.0144px"/><path d="M435.58 54v12.07c0 .27-.19.38-.42.25l-2.89-1.67a.93.93 0 0 1-.42-.73V51.86c0-.27.19-.38.42-.24l2.9 1.66a.9.9 0 0 1 .41.72z" transform-origin="433.715px 58.9668px"/></g></g></g></svg>