<svg width="96" height="96" viewBox="0 0 96 96" fill="none" xmlns="http://www.w3.org/2000/svg">
<g clip-path="url(#clip0_246_341)">
<path d="M68.0064 3.61877L58.9314 12.6938L83.3064 37.0688L92.3814 27.9938C97.0689 23.3063 97.0689 15.7125 92.3814 11.025L84.9939 3.61877C80.3064 -1.06873 72.7127 -1.06873 68.0252 3.61877H68.0064ZM54.6939 16.9313L10.9877 60.6563C9.03767 62.6063 7.61267 65.025 6.82517 67.6688L0.187665 90.225C-0.281085 91.8188 0.150165 93.525 1.31267 94.6875C2.47517 95.85 4.18142 96.2813 5.75642 95.8313L28.3127 89.1938C30.9564 88.4063 33.3752 86.9813 35.3252 85.0313L79.0689 41.3063L54.6939 16.9313Z" fill="#FF7F11" fill-opacity="0.07"/>
</g>
<defs>
<clipPath id="clip0_246_341">
<rect width="96" height="96" fill="white"/>
</clipPath>
</defs>
</svg>
