<svg width="116" height="93" viewBox="0 0 116 93" fill="none" xmlns="http://www.w3.org/2000/svg">
<g clip-path="url(#clip0_245_42)">
<path d="M8.7 0C3.89688 0 0 3.90527 0 8.71875V66.8438C0 71.6572 3.89688 75.5625 8.7 75.5625H11.6C11.6 85.1895 19.3938 93 29 93C38.6063 93 46.4 85.1895 46.4 75.5625H69.6C69.6 85.1895 77.3938 93 87 93C96.6063 93 104.4 85.1895 104.4 75.5625H110.2C113.408 75.5625 116 72.965 116 69.75C116 66.535 113.408 63.9375 110.2 63.9375V52.3125V46.5V43.1033C110.2 40.0154 108.986 37.0547 106.811 34.875L92.8 20.8342C90.625 18.6545 87.6706 17.4375 84.5894 17.4375H75.4V8.71875C75.4 3.90527 71.5031 0 66.7 0H8.7ZM75.4 29.0625H84.5894L98.6 43.1033V46.5H75.4V29.0625ZM37.7 75.5625C37.7 80.376 33.8031 84.2812 29 84.2812C24.1969 84.2812 20.3 80.376 20.3 75.5625C20.3 70.749 24.1969 66.8438 29 66.8438C33.8031 66.8438 37.7 70.749 37.7 75.5625ZM87 84.2812C82.1969 84.2812 78.3 80.376 78.3 75.5625C78.3 70.749 82.1969 66.8438 87 66.8438C91.8031 66.8438 95.7 70.749 95.7 75.5625C95.7 80.376 91.8031 84.2812 87 84.2812Z" fill="#FF7F11" fill-opacity="0.07"/>
</g>
<defs>
<clipPath id="clip0_245_42">
<rect width="116" height="93" fill="white"/>
</clipPath>
</defs>
</svg>
