<svg width="32" height="24" viewBox="0 0 32 24" fill="none" xmlns="http://www.w3.org/2000/svg">
<path d="M26.68 1.52345C29.925 3.99845 32 7.77188 32 12C32 16.2281 29.925 20.0063 26.68 22.4766C26.165 22.8703 25.41 22.7953 24.99 22.3125C24.57 21.8297 24.65 21.1219 25.165 20.7281C27.875 18.6656 29.6 15.525 29.6 12C29.6 8.47501 27.875 5.33438 25.165 3.2672C24.65 2.87345 24.575 2.16563 24.99 1.68282C25.405 1.20001 26.165 1.1297 26.68 1.51876V1.52345ZM23.655 5.01563C25.815 6.66563 27.2 9.18282 27.2 12C27.2 14.8172 25.815 17.3344 23.655 18.9844C23.14 19.3781 22.385 19.3031 21.965 18.8203C21.545 18.3375 21.625 17.6297 22.14 17.2359C23.765 15.9984 24.8 14.1141 24.8 12C24.8 9.88594 23.765 8.00157 22.14 6.75938C21.625 6.36563 21.55 5.65782 21.965 5.17501C22.38 4.6922 23.14 4.62188 23.655 5.01095V5.01563ZM20.63 8.50782C21.705 9.33282 22.4 10.5891 22.4 12C22.4 13.4109 21.705 14.6672 20.63 15.4922C20.115 15.8859 19.36 15.8109 18.94 15.3281C18.52 14.8453 18.6 14.1375 19.115 13.7438C19.655 13.3313 20 12.7031 20 12C20 11.2969 19.655 10.6688 19.115 10.2516C18.6 9.85782 18.525 9.15001 18.94 8.66719C19.355 8.18438 20.115 8.11407 20.63 8.50313V8.50782ZM15.055 1.63126C15.63 1.87501 16 2.40938 16 3.00001V21C16 21.5906 15.63 22.125 15.055 22.3688C14.48 22.6125 13.805 22.5141 13.335 22.1203L6.59 16.5H3.2C1.435 16.5 0 15.1547 0 13.5V10.5C0 8.84532 1.435 7.50001 3.2 7.50001H6.59L13.335 1.8797C13.805 1.48595 14.48 1.3922 15.055 1.63126Z" fill="#575553"/>
</svg>
